<?xml version="1.0" encoding="utf-8"?>
<!-- Generator: Adobe Illustrator 27.0.0, SVG Export Plug-In . SVG Version: 6.00 Build 0)  -->
<svg version="1.1" id="Layer_1" xmlns="http://www.w3.org/2000/svg" xmlns:xlink="http://www.w3.org/1999/xlink" x="0px" y="0px"
	 viewBox="0 0 1522.8 500" style="enable-background:new 0 0 1522.8 500;" xml:space="preserve">
<style type="text/css">
	.st0{fill:#468081;}
</style>
<g>
	<path class="st0" d="M120.1,128.8h61.2v-37c0-13.3-10.8-24.1-24.1-24.1H58.9v364.8h61.2v0h61.2v-61.2h-61.2
		C120.1,371.2,120.1,128.8,120.1,128.8z"/>
	<path class="st0" d="M1398.3,67.6h-37c-13.3,0-24.1,10.8-24.1,24.1v37h61.2v242.4h-61.2v61.2h61.2v0h61.2V67.6H1398.3L1398.3,67.6z
		"/>
	<path class="st0" d="M336,189.4c-8.7,0-16.7,2.2-23.9,6.6s-12.9,10.4-17,17.8c-3.6-7.9-8.9-13.9-15.9-18.1
		c-7-4.2-15.1-6.3-24.2-6.3s-16.3,1.9-22.8,5.8c-6.5,3.9-11.3,9.1-14.5,15.9v-20.4h-36.7v119.7h36.7v-63.5c0-8.3,2.1-14.6,6.4-19.1
		c4.3-4.4,10.1-6.6,17.4-6.6s12.5,2.1,16.5,6.3c4,4.2,6,10.1,6,17.7v65.2h36.7v-63.5c0-8.1,2.1-14.5,6.3-19s10-6.8,17.3-6.8
		s12.5,2.1,16.6,6.3c4.1,4.2,6.1,10.1,6.1,17.7v65.2h36.5v-69.5c0-16.1-4.2-28.8-12.6-37.9C362.2,193.9,350.7,189.4,336,189.4
		L336,189.4z"/>
	<path class="st0" d="M493.1,195c-9-4.9-19.5-7.3-31.3-7.3s-22.2,2.5-31.3,7.4s-16.3,12-21.3,21.2s-7.6,20.1-7.6,32.7
		s2.6,23.3,7.7,32.6c5.1,9.3,12.3,16.4,21.3,21.3s19.5,7.4,31.2,7.4c10,0,19.1-1.9,27.2-5.7c8.1-3.8,14.9-9,20.2-15.6
		c5.3-6.6,8.7-14.2,10.3-22.6h-38.8c-1.1,4.3-3.5,7.8-7.1,10.5c-3.6,2.7-8.1,4.1-13.5,4.1c-6.4,0-11.7-2-15.9-5.9
		c-4.1-3.9-6.4-10.4-6.9-19.4h83c0.7-3.6,1.1-6.9,1.1-9.9c0-11.4-2.5-21.6-7.4-30.3C509.1,206.7,502.2,199.8,493.1,195L493.1,195z
		 M437.6,240.2c0.6-7.7,3.1-13.6,7.5-17.6c4.4-4,10-6,16.7-6s11.8,2,16.2,5.9c4.4,3.9,6.5,9.8,6.3,17.7H437.6L437.6,240.2z"/>
	<path class="st0" d="M624,210.8c-3-7.1-7.8-12.8-14.4-16.9c-6.6-4.1-14.4-6.2-23.6-6.2c-9.9,0-18.7,2.5-26.5,7.4
		c-7.8,4.9-13.9,12-18.4,21.2s-6.8,20.1-6.8,32.7c0,12.6,2.2,23.3,6.8,32.6c4.5,9.3,10.7,16.4,18.4,21.3s16.6,7.4,26.5,7.4
		c9.2,0,17-2.1,23.6-6.2c6.6-4.1,11.4-9.8,14.4-16.9v21.7h36.7V150.1H624V210.8z M616.8,270.2c-4.9,5.3-11.3,7.9-19,7.9
		s-14.2-2.6-19-7.7s-7.2-12.3-7.2-21.4s2.4-16.3,7.2-21.4s11.1-7.7,19-7.7s14,2.6,19,7.8s7.4,12.3,7.4,21.3
		C624.2,258,621.7,264.9,616.8,270.2z"/>
	<rect x="685.9" y="190.7" class="st0" width="36.7" height="119.7"/>
	<path class="st0" d="M704.4,137.7c-6.6,0-11.9,1.8-15.9,5.5s-6,8.3-6,13.8s2,10,6,13.6c4,3.6,9.3,5.5,15.9,5.5s11.9-1.8,15.9-5.5
		s6-8.2,6-13.6s-2-10.2-6-13.8C716.2,139.5,711,137.7,704.4,137.7z"/>
	<path class="st0" d="M824.9,244.2c-5.9-2.2-13.4-4.4-22.5-6.5c-8.4-1.9-14.6-3.7-18.5-5.6c-3.9-1.9-5.9-4.6-5.9-8.4
		c0-3.3,1.1-5.8,3.2-7.6c2.1-1.8,5.3-2.7,9.4-2.7c5.3,0,9.7,1.4,13.2,4.2c3.5,2.8,5.8,6.6,6.8,11.5h34.3c-2.3-12.4-8-22.4-17-30
		s-21.2-11.4-36.3-11.4s-26.4,3.3-34.5,10c-8.2,6.6-12.2,15.3-12.2,26.1c0,8.3,2.1,14.8,6.2,19.6c4.1,4.8,9.1,8.3,14.8,10.4
		c5.7,2.1,13,4.2,21.9,6c8.9,2,15.3,3.9,19.2,5.7c3.9,1.8,5.9,4.8,5.9,8.9c0,3.1-1.1,5.7-3.2,7.6c-2.1,1.9-5.3,2.9-9.4,2.9
		c-6,0-10.9-1.4-14.7-4.1c-3.8-2.7-6-6.6-6.5-11.8h-35.4c2.1,13.3,8.1,23.5,17.8,30.7c9.7,7.1,22.7,10.7,38.8,10.7
		c9.6,0,17.9-1.5,24.9-4.5s12.4-7.1,16.1-12.4c3.7-5.3,5.6-11.4,5.6-18.2c0-8.4-2.2-15.1-6.4-20.2
		C835.8,250,830.8,246.4,824.9,244.2L824.9,244.2z"/>
	<path class="st0" d="M1035,213.2v-22.5h-36.7v119.7h36.7v-54.5c0-9.9,2.7-16.9,8-21c5.4-4.1,12.9-6.2,22.6-6.2h10.5v-39.2
		c-8.4,0-16.3,2.1-23.5,6.4C1045.5,200.1,1039.6,205.9,1035,213.2L1035,213.2z"/>
	<path class="st0" d="M1176.9,195c-9-4.9-19.4-7.3-31.3-7.3s-22.2,2.5-31.3,7.4s-16.3,12-21.3,21.2s-7.6,20.1-7.6,32.7
		s2.6,23.3,7.7,32.6c5.2,9.3,12.3,16.4,21.3,21.3s19.5,7.4,31.2,7.4c10,0,19.1-1.9,27.2-5.7c8.2-3.8,14.9-9,20.2-15.6
		c5.3-6.6,8.7-14.2,10.3-22.6h-38.8c-1.2,4.3-3.5,7.8-7.1,10.5c-3.6,2.7-8.1,4.1-13.5,4.1c-6.4,0-11.7-2-15.9-5.9
		c-4.2-3.9-6.4-10.4-6.9-19.4h83c0.7-3.6,1.1-6.9,1.1-9.9c0-11.4-2.5-21.6-7.4-30.3S1185.9,199.8,1176.9,195L1176.9,195z
		 M1121.4,240.2c0.6-7.7,3.1-13.6,7.5-17.6c4.4-4,10-6,16.7-6s11.8,2,16.2,5.9s6.5,9.8,6.3,17.7H1121.4L1121.4,240.2z"/>
	<path class="st0" d="M1338,245.8c0-11.4-2.5-21.6-7.4-30.3s-11.9-15.6-20.9-20.5s-19.4-7.3-31.3-7.3s-22.2,2.5-31.3,7.4
		s-16.3,12-21.3,21.2s-7.6,20.1-7.6,32.7s2.6,23.3,7.7,32.6c5.2,9.3,12.3,16.4,21.3,21.3s19.5,7.4,31.2,7.4c10,0,19.1-1.9,27.2-5.7
		c8.2-3.8,14.9-9,20.2-15.6c5.3-6.6,8.7-14.2,10.3-22.6h-38.8c-1.2,4.3-3.5,7.8-7.1,10.5c-3.6,2.7-8.1,4.1-13.5,4.1
		c-6.4,0-11.7-2-15.9-5.9c-4.2-3.9-6.4-10.4-6.9-19.4h83C1337.6,252.1,1338,248.8,1338,245.8L1338,245.8z M1254.2,240.2
		c0.6-7.7,3.1-13.6,7.5-17.6c4.4-4,10-6,16.7-6s11.8,2,16.2,5.9s6.5,9.8,6.3,17.7H1254.2L1254.2,240.2z"/>
	<polygon class="st0" points="935.9,190.7 899.2,190.7 899.2,232.2 857.7,232.2 857.7,268.9 899.2,268.9 899.2,310.3 935.9,310.3 
		935.9,268.9 977.4,268.9 977.4,232.2 935.9,232.2 	"/>
</g>
</svg>
