<?xml version="1.0" encoding="utf-8"?>
<!-- Generator: Adobe Illustrator 27.0.0, SVG Export Plug-In . SVG Version: 6.00 Build 0)  -->
<svg version="1.1" id="Layer_1" xmlns="http://www.w3.org/2000/svg" xmlns:xlink="http://www.w3.org/1999/xlink" x="0px" y="0px"
	 viewBox="0 0 500 500" style="enable-background:new 0 0 500 500;" xml:space="preserve">
<style type="text/css">
	.st0{fill:#468081;}
	.st1{fill:#212121;}
</style>
<g>
	<g>
		<path class="st0" d="M192.8,95.9H87.3v197H153v0h65.7v-65.7H153v-65.6h65.7v-39.8C218.7,107.5,207.1,95.9,192.8,95.9L192.8,95.9z"
			/>
		<path class="st0" d="M350,95.9h-39.8c-14.3,0-25.9,11.6-25.9,25.9v39.8H350v65.6h-65.7v65.7H350v0h65.7v-197H350z"/>
	</g>
	<g>
		<path class="st1" d="M114.2,363.3c3.3,3.4,4.9,8,4.9,14v26.1h-13.6v-24.3c0-2.9-0.8-5.1-2.3-6.7c-1.5-1.6-3.6-2.4-6.3-2.4
			s-4.8,0.8-6.3,2.4c-1.5,1.6-2.3,3.8-2.3,6.7v24.3H74.7v-24.3c0-2.9-0.8-5.1-2.3-6.7c-1.5-1.6-3.6-2.4-6.3-2.4s-4.8,0.8-6.3,2.4
			c-1.5,1.6-2.3,3.8-2.3,6.7v24.3H43.9v-44.7h13.7v5.6c1.4-1.9,3.2-3.4,5.5-4.5c2.2-1.1,4.8-1.6,7.6-1.6c3.4,0,6.4,0.7,9,2.2
			s4.7,3.5,6.2,6.2c1.6-2.5,3.7-4.5,6.3-6c2.7-1.5,5.6-2.3,8.7-2.3C106.5,358.2,110.9,359.9,114.2,363.3L114.2,363.3z"/>
		<path class="st1" d="M170.6,384.3h-31c0.2,2.8,1.1,4.9,2.7,6.4c1.6,1.5,3.5,2.2,5.8,2.2c3.4,0,5.8-1.4,7.1-4.3h14.6
			c-0.8,2.9-2.1,5.6-4.1,7.9s-4.4,4.2-7.3,5.5s-6.2,2-9.9,2c-4.4,0-8.3-0.9-11.7-2.8s-6.1-4.5-8-8s-2.9-7.5-2.9-12.2
			s0.9-8.7,2.8-12.2c1.9-3.5,4.6-6.1,8-8s7.3-2.8,11.8-2.8s8.2,0.9,11.5,2.7c3.4,1.8,6,4.4,7.9,7.8c1.9,3.4,2.8,7.3,2.8,11.8
			C170.9,381.6,170.8,383,170.6,384.3L170.6,384.3z M156.9,376.7c0-2.4-0.8-4.2-2.4-5.6c-1.6-1.4-3.6-2.1-6-2.1s-4.2,0.7-5.8,2
			c-1.6,1.3-2.6,3.2-2.9,5.7L156.9,376.7L156.9,376.7z"/>
		<path class="st1" d="M178,368.9c1.7-3.5,4.1-6.1,7.1-8c3-1.9,6.3-2.8,10-2.8c2.9,0,5.6,0.6,8.1,1.8c2.4,1.2,4.3,2.9,5.7,5v-20.8
			h13.7v59.3h-13.7V397c-1.3,2.1-3.1,3.9-5.5,5.1s-5.1,1.9-8.3,1.9c-3.7,0-7-1-10-2.8c-3-1.9-5.4-4.6-7.1-8.1
			c-1.7-3.5-2.6-7.5-2.6-12.1S176.2,372.4,178,368.9L178,368.9z M206,373c-1.9-2-4.2-3-6.9-3s-5,1-6.9,2.9c-1.9,2-2.8,4.6-2.8,8
			s0.9,6.1,2.8,8.1s4.2,3,6.9,3s5-1,6.9-3c1.9-2,2.8-4.7,2.8-8.1S207.9,375,206,373L206,373z"/>
		<path class="st1" d="M233.5,351.9c-1.5-1.4-2.3-3.2-2.3-5.2s0.8-3.9,2.3-5.3c1.5-1.4,3.5-2.1,5.9-2.1s4.3,0.7,5.8,2.1
			c1.5,1.4,2.3,3.2,2.3,5.3s-0.8,3.8-2.3,5.2s-3.5,2.1-5.8,2.1S235,353.3,233.5,351.9z M246.2,358.7v44.7h-13.7v-44.7H246.2z"/>
		<path class="st1" d="M263.9,402c-3-1.3-5.5-3.2-7.2-5.5c-1.8-2.3-2.8-4.9-3-7.8h13.5c0.2,1.5,0.9,2.8,2.2,3.8s2.9,1.4,4.7,1.4
			c1.7,0,3-0.3,4-1s1.4-1.5,1.4-2.6c0-1.3-0.7-2.2-2-2.8c-1.3-0.6-3.5-1.3-6.5-2c-3.2-0.8-5.9-1.5-8-2.4c-2.1-0.8-4-2.1-5.5-3.9
			c-1.6-1.8-2.3-4.2-2.3-7.2c0-2.6,0.7-4.9,2.1-7c1.4-2.1,3.5-3.8,6.2-5s6-1.8,9.8-1.8c5.6,0,10,1.4,13.3,4.2s5.1,6.5,5.6,11.1
			h-12.7c-0.2-1.5-0.9-2.8-2-3.7s-2.7-1.4-4.5-1.4c-1.6,0-2.8,0.3-3.7,0.9c-0.9,0.6-1.3,1.5-1.3,2.5c0,1.3,0.7,2.2,2,2.9
			c1.4,0.6,3.5,1.3,6.4,1.9c3.3,0.9,6,1.7,8.1,2.5c2.1,0.8,3.9,2.2,5.5,4c1.6,1.8,2.4,4.3,2.4,7.4c0,2.6-0.7,5-2.2,7
			s-3.6,3.7-6.3,4.9c-2.8,1.2-5.9,1.8-9.6,1.8C270.4,404.1,266.9,403.4,263.9,402L263.9,402z"/>
		<path class="st1" d="M325.7,391.8v11.6h-7c-5,0-8.8-1.2-11.6-3.6c-2.8-2.4-4.2-6.4-4.2-11.9v-17.8h-5.5v-11.4h5.5v-10.9h13.7v10.9
			h9v11.4h-9v18c0,1.3,0.3,2.3,1,2.9s1.7,0.9,3.2,0.9L325.7,391.8L325.7,391.8z"/>
		<path class="st1" d="M353,360.4c2.4-1.4,5.1-2.1,8-2.1v14.5h-3.8c-3.4,0-6,0.7-7.7,2.2s-2.6,4-2.6,7.7v20.8h-13.7v-44.7H347v7.5
			C348.6,363.7,350.6,361.8,353,360.4L353,360.4z"/>
		<path class="st1" d="M409.5,384.3h-31c0.2,2.8,1.1,4.9,2.7,6.4s3.5,2.2,5.8,2.2c3.4,0,5.8-1.4,7.1-4.3h14.6
			c-0.8,2.9-2.1,5.6-4,7.9c-2,2.4-4.4,4.2-7.3,5.5c-2.9,1.3-6.2,2-9.9,2c-4.4,0-8.3-0.9-11.7-2.8s-6.1-4.5-8-8s-2.9-7.5-2.9-12.2
			s1-8.7,2.8-12.2c1.9-3.5,4.5-6.1,8-8s7.3-2.8,11.8-2.8s8.2,0.9,11.5,2.7c3.4,1.8,6,4.4,7.9,7.8c1.9,3.4,2.8,7.3,2.8,11.8
			C409.8,381.6,409.7,383,409.5,384.3L409.5,384.3z M395.8,376.7c0-2.4-0.8-4.2-2.4-5.6c-1.6-1.4-3.6-2.1-6-2.1s-4.2,0.7-5.8,2
			c-1.6,1.3-2.5,3.2-2.9,5.7L395.8,376.7L395.8,376.7z"/>
		<path class="st1" d="M458.9,384.3h-31c0.2,2.8,1.1,4.9,2.7,6.4s3.5,2.2,5.8,2.2c3.4,0,5.8-1.4,7.1-4.3h14.6
			c-0.8,2.9-2.1,5.6-4,7.9c-2,2.4-4.4,4.2-7.3,5.5c-2.9,1.3-6.2,2-9.9,2c-4.4,0-8.3-0.9-11.7-2.8s-6.1-4.5-8-8s-2.9-7.5-2.9-12.2
			s1-8.7,2.8-12.2c1.9-3.5,4.5-6.1,8-8s7.3-2.8,11.8-2.8s8.2,0.9,11.5,2.7c3.4,1.8,6,4.4,7.9,7.8c1.9,3.4,2.8,7.3,2.8,11.8
			C459.1,381.6,459.1,383,458.9,384.3L458.9,384.3z M445.1,376.7c0-2.4-0.8-4.2-2.4-5.6c-1.6-1.4-3.6-2.1-6-2.1s-4.2,0.7-5.8,2
			c-1.6,1.3-2.5,3.2-2.9,5.7L445.1,376.7L445.1,376.7z"/>
	</g>
</g>
</svg>
