<?xml version="1.0" encoding="utf-8"?>
<!-- Generator: Adobe Illustrator 26.0.1, SVG Export Plug-In . SVG Version: 6.00 Build 0)  -->
<svg version="1.1" id="Layer_1" xmlns="http://www.w3.org/2000/svg" xmlns:xlink="http://www.w3.org/1999/xlink" x="0px" y="0px"
	 viewBox="0 0 667.3 74.8" style="enable-background:new 0 0 667.3 74.8;" xml:space="preserve">
<style type="text/css">
	.st0{fill:#FFFFFF;}
	.st1{fill:#458184;}
	.st2{fill:#E30C13;}
	.st3{fill:#4F556A;}
	.st4{fill:#468184;}
</style>
<g>
	<g>
		<g>
			<g>
				<path class="st0" d="M53.9,21.2l19-19v49.5c0,3-1.2,6-3.3,8.1L57.8,71.5c-1.4,1.4-3.9,0.4-3.9-1.6L53.9,21.2z"/>
				<path class="st1" d="M56.2,74.2c-0.5,0-1.1-0.1-1.6-0.3c-1.6-0.7-2.6-2.2-2.6-3.9l-0.1-48.7c0-0.5,0.2-1,0.6-1.4l19-19
					c0.6-0.6,1.4-0.7,2.2-0.4s1.2,1,1.2,1.9v49.5c0,3.6-1.4,7-3.9,9.5L59.2,72.9C58.4,73.8,57.3,74.2,56.2,74.2z M55.9,22l0.1,47.9
					c0,0.1,0,0.2,0.2,0.2c0.2,0.1,0.2,0,0.3-0.1l11.8-11.8c1.8-1.8,2.8-4.2,2.8-6.7V7L55.9,22z"/>
			</g>
			<g>
				<g>
					<path class="st1" d="M53.9,21.2l19-19H22.2c-3,0-6,1.2-8.1,3.3L2.3,17.3c-1.4,1.4-0.4,3.9,1.6,3.9L53.9,21.2z"/>
				</g>
				<g>
					<path class="st1" d="M53.9,23.2C53.9,23.2,53.9,23.2,53.9,23.2L4,23.1c-1.7,0-3.3-1-3.9-2.6c-0.7-1.6-0.3-3.4,0.9-4.6L12.7,4.1
						c2.5-2.5,5.9-3.9,9.5-3.9h50.7c0.8,0,1.5,0.5,1.8,1.2c0.3,0.8,0.1,1.6-0.4,2.2l-19.1,19C54.9,23,54.4,23.2,53.9,23.2z
						 M22.2,4.2c-2.5,0-4.9,1-6.7,2.8L3.8,18.7c0,0-0.1,0.1-0.1,0.3c0.1,0.2,0.2,0.2,0.2,0.2L53,19.2l15-15H22.2z"/>
				</g>
			</g>
		</g>
		<g>
			<g>
				<path class="st0" d="M32.5,42.6L45.1,30v30.6c0,1.4-0.5,2.7-1.5,3.7l-7.2,7.2c-1.4,1.4-3.9,0.4-3.9-1.6L32.5,42.6z"/>
				<path class="st2" d="M34.8,74.2c-0.5,0-1.1-0.1-1.6-0.3c-1.6-0.7-2.6-2.2-2.6-3.9l0-27.3c0-0.5,0.2-1,0.6-1.4l12.6-12.6
					c0.6-0.6,1.4-0.7,2.2-0.4s1.2,1,1.2,1.9v30.6c0,1.9-0.8,3.8-2.1,5.1l-7.2,7.2C37,73.8,35.9,74.2,34.8,74.2z M34.5,43.4l0,26.5
					c0,0.1,0,0.2,0.2,0.2c0.2,0.1,0.2,0,0.3-0.1l7.2-7.2c0.6-0.6,1-1.4,1-2.3V34.8L34.5,43.4z"/>
			</g>
			<g>
				<path class="st2" d="M32.5,42.6L45.1,30H15.8c-3,0-5.9,1.2-8.1,3.4l-5.3,5.3c-1.4,1.4-0.4,3.9,1.6,3.9L32.5,42.6z"/>
				<path class="st2" d="M32.5,44.6L32.5,44.6L4,44.6c-1.7,0-3.3-1-3.9-2.6s-0.3-3.4,0.9-4.6L6.3,32c2.5-2.5,5.9-3.9,9.5-3.9h29.3
					c0.8,0,1.5,0.5,1.8,1.2c0.3,0.8,0.1,1.6-0.4,2.2L33.9,44C33.5,44.4,33,44.6,32.5,44.6z M15.8,32c-2.5,0-4.9,1-6.7,2.8l-5.3,5.3
					c0,0-0.1,0.1-0.1,0.3c0.1,0.2,0.2,0.2,0.2,0.2l27.7,0l8.6-8.6C40.2,32,15.8,32,15.8,32z"/>
			</g>
		</g>
		<g>
			<g>
				<path class="st0" d="M16.5,58.5l7-7v12.9c0,1.3-0.5,2.5-1.4,3.4l-4.1,4.1c-0.5,0.5-1.4,0.2-1.4-0.6L16.5,58.5z"/>
				<path class="st3" d="M17.3,74.2c-0.4,0-0.7-0.1-1.1-0.2c-1.1-0.4-1.8-1.5-1.8-2.6l0-12.9c0-0.5,0.2-1,0.6-1.4l7-7
					c0.6-0.6,1.4-0.7,2.2-0.4s1.2,1,1.2,1.8v12.9c0,1.8-0.7,3.5-2,4.8l-4.1,4.1C18.8,73.9,18.1,74.2,17.3,74.2z M18.5,59.3l0,9.2
					l2.1-2.1c0.5-0.5,0.8-1.2,0.8-2v-8.1L18.5,59.3z"/>
			</g>
			<g>
				<path class="st3" d="M16.5,58.5l7-7h-14c-1.3,0-2.5,0.5-3.4,1.4L1.9,57c-0.5,0.5-0.1,1.4,0.6,1.4L16.5,58.5z"/>
				<path class="st3" d="M16.5,60.5C16.5,60.5,16.5,60.5,16.5,60.5l-14,0c-1.1,0-2.2-0.7-2.6-1.8s-0.2-2.3,0.6-3.1l4.1-4.1
					c1.3-1.3,3-2,4.8-2h14c0.8,0,1.5,0.5,1.9,1.2c0.3,0.8,0.1,1.6-0.4,2.2l-7,7C17.5,60.3,17,60.5,16.5,60.5z M5.3,56.5l10.3,0l3-3
					H9.4c-0.7,0-1.5,0.3-2,0.8L5.3,56.5z"/>
			</g>
		</g>
	</g>
	<g>
		<path class="st4" d="M91.3,73.9V0.3H106l21.3,30.8l21.3-30.8h14.7V74h-13.3V19.5l-22.7,32.5l-22.7-32.5v54.4H91.3z"/>
		<path class="st4" d="M181.9,73.9V0.3h49v11.9h-35.7v18.6h31v12.5h-31V62h35.7v11.9H181.9z"/>
		<path class="st4" d="M246.1,73.9V0.3h25.4c11.4,0,20,3.1,26,9.4c5.9,6.2,8.9,15.4,8.9,27.5c0,12-2.9,21.1-8.8,27.4
			s-14.5,9.4-26,9.4L246.1,73.9L246.1,73.9z M259.3,62h12.1c7.6,0,13.2-1.9,16.5-5.8c3.4-3.9,5-10.2,5-19c0-8.9-1.7-15.2-5-19.1
			c-3.4-3.9-8.9-5.8-16.5-5.8h-12.1L259.3,62L259.3,62z"/>
		<path class="st4" d="M322.5,73.9V0.3h13.3V74C335.8,74,322.5,74,322.5,73.9z"/>
		<path class="st4" d="M351.6,21c0-7.1,2.5-12.5,7.5-16.1s11.2-5.4,18.8-5.4c6.6,0,13.2,1.7,19.8,5.1v13c-5.7-3.7-11.8-5.6-18.2-5.6
			c-4.1,0-7.5,0.7-10.3,2.1s-4.2,3.6-4.2,6.6c0,2.4,1.3,4.4,3.9,5.7s5.7,2.5,9.3,3.5c3.6,1,7.3,2.1,11,3.6c3.7,1.4,6.8,3.9,9.4,7.5
			c2.6,3.5,3.9,8.1,3.9,13.7c0,5.9-2.5,10.7-7.4,14.5c-4.9,3.7-10.9,5.6-18,5.6c-9.3,0-17.4-2.1-24.3-6.2V55.2
			c6.3,4.7,13.4,7.1,21.2,7.1c10.1,0,15.2-2.8,15.2-8.5c0-2.5-0.9-4.7-2.8-6.4s-4.1-2.9-7-3.8c-2.8-0.8-5.8-1.8-9-2.9
			c-3.2-1.1-6.2-2.3-9-3.6c-2.8-1.3-5.1-3.3-7-6.1C352.5,28.5,351.6,25.1,351.6,21z"/>
		<path class="st3" d="M409.6,13.6V0.3H470v13.3h-23.6v60.4h-13.3V13.6H409.6z"/>
		<path class="st3" d="M482.1,73.9V0.3h28.3c8.6,0,15.3,2,20.1,6.1s7.2,9.9,7.2,17.5c0,11.2-5.4,18.5-16.2,21.7l19.3,28.2h-16
			l-17.6-26h-11.9v26H482.1z M495.4,35.8H510c4.5,0,8-0.8,10.6-2.4c2.5-1.6,3.8-4.6,3.8-9.1c0-4.5-1.3-7.6-3.8-9.1
			s-6.1-2.4-10.6-2.4h-14.7L495.4,35.8L495.4,35.8z"/>
		<path class="st3" d="M554.2,73.9V0.3h49v11.9h-35.7v18.6h31v12.5h-31V62h35.7v11.9H554.2z"/>
		<path class="st3" d="M618.3,73.9V0.3h49v11.9h-35.7v18.6h31v12.5h-31V62h35.7v11.9H618.3z"/>
	</g>
</g>
</svg>
