<?xml version="1.0" encoding="UTF-8" standalone="no"?>
<svg
   width="2084"
   height="2084"
   viewBox="0 0 2084 2084"
   version="1.1"
   id="svg10"
   sodipodi:docname="medistree.svg"
   inkscape:version="1.1.1 (3bf5ae0d25, 2021-09-20)"
   xmlns:inkscape="http://www.inkscape.org/namespaces/inkscape"
   xmlns:sodipodi="http://sodipodi.sourceforge.net/DTD/sodipodi-0.dtd"
   xmlns="http://www.w3.org/2000/svg"
   xmlns:svg="http://www.w3.org/2000/svg">
  <defs
     id="defs14" />
  <sodipodi:namedview
     id="namedview12"
     pagecolor="#ffffff"
     bordercolor="#666666"
     borderopacity="1.0"
     inkscape:pageshadow="2"
     inkscape:pageopacity="0.0"
     inkscape:pagecheckerboard="0"
     showgrid="false"
     inkscape:zoom="0.34884837"
     inkscape:cx="505.95048"
     inkscape:cy="1042"
     inkscape:window-width="1244"
     inkscape:window-height="1060"
     inkscape:window-x="1920"
     inkscape:window-y="16"
     inkscape:window-maximized="1"
     inkscape:current-layer="svg10" />
  <path
     fill-opacity="0.329"
     d="M 1198.500 520.994 L 836.500 521.500 825.500 523.830 C 793.839 530.535, 764.918 544.293, 742 563.549 C 737.875 567.014, 695.731 608.696, 648.347 656.175 C 587.252 717.391, 561.020 744.335, 558.158 748.810 C 551.399 759.380, 549.500 766.439, 549.500 781 C 549.500 791.466, 549.876 794.589, 551.812 800.190 C 558.164 818.574, 573.195 832.645, 593 838.748 C 598.115 840.324, 622.033 840.464, 934.750 840.745 L 1271 841.048 1271.138 955.774 C 1271.214 1018.873, 1271.567 1170.625, 1271.922 1293 L 1272.569 1515.500 1274.739 1521.275 C 1278.556 1531.430, 1282.929 1538.488, 1289.296 1544.767 C 1308.375 1563.584, 1333.976 1567.864, 1358 1556.253 C 1364.927 1552.905, 1367.932 1550.218, 1397.349 1521.064 C 1414.866 1503.704, 1456.266 1462.049, 1489.349 1428.498 C 1555.922 1360.982, 1557.861 1358.719, 1570.321 1333.990 C 1581.630 1311.543, 1587.677 1290.481, 1589.983 1265.500 C 1590.648 1258.300, 1590.999 1132.027, 1590.999 899.932 C 1591 497.578, 1591.978 538.575, 1582.151 528.950 C 1577.583 524.476, 1575.309 523.070, 1570.427 521.700 C 1567.095 520.765, 1563.498 520.110, 1562.434 520.244 C 1561.370 520.378, 1397.600 520.716, 1198.500 520.994 M 1430.750 720.884 L 1327 824.986 1327.146 996.743 C 1327.227 1091.209, 1327.564 1244.276, 1327.896 1336.891 C 1328.479 1499.478, 1328.564 1505.321, 1330.355 1506.391 C 1331.991 1507.369, 1342.359 1497.286, 1418.097 1421.068 C 1481.080 1357.686, 1505.614 1332.352, 1510.095 1326.068 C 1520.713 1311.179, 1527.877 1295.035, 1532.206 1276.244 L 1534.451 1266.500 1534.739 982 C 1534.897 825.525, 1534.908 679.338, 1534.763 657.141 L 1534.500 616.781 1430.750 720.884 M 743.768 889.108 C 710.056 892.376, 677.145 905.910, 651.500 927.051 C 640.205 936.362, 563.623 1013.986, 560.747 1019.038 C 555.705 1027.896, 553.700 1035.671, 553.665 1046.500 C 553.629 1057.580, 554.686 1062.318, 559.349 1071.973 C 563.346 1080.252, 574.207 1091.385, 582.500 1095.706 C 594.921 1102.177, 591.996 1102, 686.644 1102 C 733.865 1102.001, 826.768 1102.300, 893.095 1102.665 L 1013.689 1103.329 1014.266 1308.414 L 1014.842 1513.500 1017.397 1521.500 C 1028.328 1555.727, 1068.065 1570.332, 1099.123 1551.536 C 1104.494 1548.286, 1203.588 1448.845, 1209.771 1440.500 C 1218.654 1428.513, 1225.015 1412.360, 1226.959 1396.854 C 1228.423 1385.178, 1228.406 913.494, 1226.941 907.693 C 1225.336 901.333, 1219.823 894.467, 1213.754 891.269 L 1208.500 888.500 980.500 888.381 C 855.100 888.315, 748.571 888.643, 743.768 889.108 M 1120.750 1032.750 L 1066 1087.507 1066 1295.819 C 1066 1437.502, 1066.331 1504.750, 1067.035 1506.066 C 1067.605 1507.130, 1068.627 1508, 1069.308 1508 C 1069.989 1508, 1092.672 1485.838, 1119.714 1458.750 C 1172.256 1406.118, 1172.432 1405.912, 1174.990 1393.500 C 1175.683 1390.138, 1175.936 1321.266, 1175.761 1183.247 L 1175.500 977.993 1120.750 1032.750 M 807 1143.936 L 679.500 1144.510 671.900 1146.730 C 661.267 1149.835, 651.949 1154.196, 642.017 1160.718 C 635.185 1165.204, 626.227 1173.651, 596.746 1203.406 C 556.901 1243.621, 555.036 1245.968, 553.003 1258.472 C 550.197 1275.735, 559.687 1293.893, 575.500 1301.515 C 581.314 1304.317, 582.135 1304.429, 602 1305.109 C 613.275 1305.495, 663.553 1305.854, 713.729 1305.906 L 804.958 1306 805.229 1417.750 L 805.500 1529.500 808.693 1536.241 C 812.827 1544.968, 820.035 1552.175, 828.759 1556.304 C 834.945 1559.232, 836.328 1559.495, 845.548 1559.497 C 855.121 1559.500, 855.949 1559.325, 863.048 1555.809 C 869.974 1552.378, 873.117 1549.484, 907.575 1514.809 C 933.494 1488.726, 946.066 1475.339, 949.357 1470.317 C 954.278 1462.808, 958.592 1453.970, 961.471 1445.500 C 965.976 1432.242, 965.949 1433.149, 966.026 1295.542 C 966.099 1165.022, 966.099 1165.012, 963.998 1160.256 C 959.753 1150.645, 950.544 1144.210, 940.254 1143.665 C 937.089 1143.498, 877.125 1143.620, 807 1143.936 M 885.750 1264.750 L 861 1289.515 861 1385.498 L 861 1481.482 881.546 1460.991 C 905.204 1437.397, 908.182 1432.955, 910.041 1418.500 C 910.696 1413.405, 910.966 1379.540, 910.785 1325.242 L 910.500 1239.985 885.750 1264.750 M 1.762 2083.707 C 3.006 2083.946, 4.806 2083.937, 5.762 2083.687 C 6.718 2083.437, 5.700 2083.241, 3.500 2083.252 C 1.300 2083.263, 0.518 2083.468, 1.762 2083.707 M 12.750 2083.737 C 15.638 2083.939, 20.363 2083.939, 23.250 2083.737 C 26.138 2083.535, 23.775 2083.370, 18 2083.370 C 12.225 2083.370, 9.863 2083.535, 12.750 2083.737 "
     stroke="none"
     fill="black"
     fill-rule="evenodd"
     id="path2" />
  <path
     fill-opacity="0.316"
     d="M 840.572 522.099 C 804.458 525.917, 769.155 541.144, 740.318 565.341 C 735.268 569.578, 692.968 611.527, 646.318 658.561 C 583.666 721.728, 560.512 745.695, 557.718 750.273 C 540.137 779.075, 550.882 817.840, 580.743 833.341 C 594.262 840.360, 581.856 839.948, 785 840.129 C 885.925 840.220, 1036.675 840.565, 1120 840.897 L 1271.500 841.500 1272 1177.500 L 1272.500 1513.500 1275.560 1522.044 C 1281.058 1537.396, 1290.192 1548.175, 1303.734 1555.291 C 1313.659 1560.506, 1322.242 1562.305, 1334.500 1561.739 C 1345.574 1561.227, 1352.752 1559.140, 1361.932 1553.762 C 1366.003 1551.377, 1391.153 1526.744, 1455.500 1462.119 C 1503.900 1413.509, 1546.661 1369.785, 1550.525 1364.954 C 1565.628 1346.070, 1578.098 1321.081, 1584.078 1297.716 C 1589.818 1275.286, 1589.354 1307.342, 1589.717 908.500 C 1590.025 570.484, 1589.924 542.167, 1588.402 538.145 C 1586.292 532.569, 1581.945 527.641, 1576.113 524.212 L 1571.500 521.500 1210 521.380 C 1011.175 521.314, 844.932 521.638, 840.572 522.099 M 1430.750 720.750 L 1327 824.504 1327 1163.818 C 1327 1395.803, 1327.327 1503.743, 1328.035 1505.066 C 1328.605 1506.130, 1329.858 1507, 1330.820 1507 C 1331.807 1507, 1370.249 1469.222, 1419.094 1420.250 C 1491.485 1347.670, 1506.609 1332.030, 1511.681 1324.500 C 1519.558 1312.806, 1524.324 1303.207, 1528.484 1290.660 C 1535.580 1269.254, 1535.101 1296.002, 1534.785 938.748 L 1534.500 616.996 1430.750 720.750 M 967 889.017 L 735.500 889.554 725.823 891.783 C 696.744 898.479, 671.054 910.938, 650 928.555 C 645.875 932.007, 624.701 952.757, 602.946 974.666 C 560.890 1017.019, 559.387 1018.844, 555.517 1032.252 C 553.412 1039.546, 553.398 1053.552, 555.489 1061.419 C 559.239 1075.527, 570.545 1089.598, 583.053 1095.722 C 596.675 1102.393, 581.436 1101.969, 808.086 1101.985 L 1013.671 1102 1014.335 1171.750 C 1014.700 1210.112, 1015.005 1302.250, 1015.014 1376.500 C 1015.031 1524.820, 1014.744 1517.604, 1021.130 1530.260 C 1025.406 1538.734, 1036.493 1549.686, 1045 1553.839 C 1051.917 1557.216, 1062.911 1559.965, 1069.500 1559.965 C 1076.309 1559.965, 1087.179 1557.185, 1094.500 1553.570 C 1100.942 1550.389, 1105.686 1545.924, 1154 1497.562 C 1210.530 1440.976, 1214.327 1436.583, 1220.736 1420.358 C 1222.443 1416.036, 1224.663 1408.675, 1225.670 1404 C 1227.415 1395.895, 1227.500 1384.197, 1227.500 1152 L 1227.500 908.500 1224.641 902.677 C 1222.793 898.913, 1220.348 895.816, 1217.727 893.917 C 1213.238 890.665, 1205.035 887.870, 1201.068 888.240 C 1199.656 888.371, 1094.325 888.721, 967 889.017 M 1120.750 1032.603 L 1066 1087.707 1066 1296.653 C 1066 1457.834, 1066.274 1505.874, 1067.200 1506.800 C 1067.860 1507.460, 1069.170 1508, 1070.112 1508 C 1072.294 1508, 1165.114 1414.187, 1169.549 1407.500 C 1176.498 1397.021, 1176.032 1413.762, 1175.752 1184.486 L 1175.500 977.500 1120.750 1032.603 M 809.500 1144.006 L 680.500 1144.512 672.500 1146.773 C 661.969 1149.751, 646.106 1157.583, 638 1163.807 C 634.425 1166.552, 615.251 1185.156, 595.390 1205.149 C 552.587 1248.239, 553.500 1246.944, 553.500 1264.521 C 553.500 1274.966, 553.672 1275.892, 556.797 1282.239 C 560.984 1290.745, 567.253 1297.014, 575.759 1301.203 L 582.454 1304.500 693.477 1305.113 C 754.540 1305.450, 804.612 1305.788, 804.750 1305.863 C 804.888 1305.938, 805 1354.539, 805 1413.864 C 805 1482.556, 805.368 1523.683, 806.014 1527.114 C 810.013 1548.357, 831.193 1563.107, 852.112 1559.216 C 865.240 1556.775, 866.439 1555.818, 906.086 1516.127 C 926.208 1495.982, 944.778 1476.508, 947.351 1472.852 C 953.260 1464.456, 960.182 1449.864, 963.172 1439.500 L 965.480 1431.500 965.765 1298.200 C 966.039 1169.906, 965.979 1164.742, 964.183 1160.700 C 960.233 1151.813, 952.255 1145.500, 943.331 1144.203 C 940.674 1143.816, 880.450 1143.728, 809.500 1144.006 M 885.250 1264.802 L 860 1290.803 860.137 1346.151 C 860.212 1376.593, 860.550 1419.654, 860.887 1441.842 L 861.500 1482.184 882.088 1461.323 C 904.719 1438.394, 907.756 1434.001, 909.961 1421 C 910.723 1416.512, 910.977 1387.310, 910.782 1326.650 L 910.500 1238.800 885.250 1264.802 M 1.762 2083.707 C 3.006 2083.946, 4.806 2083.937, 5.762 2083.687 C 6.718 2083.437, 5.700 2083.241, 3.500 2083.252 C 1.300 2083.263, 0.518 2083.468, 1.762 2083.707 M 13.784 2083.738 C 16.689 2083.941, 21.189 2083.939, 23.784 2083.734 C 26.378 2083.528, 24 2083.363, 18.500 2083.365 C 13 2083.368, 10.878 2083.536, 13.784 2083.738 "
     stroke="none"
     fill="black"
     fill-rule="evenodd"
     id="path4" />
  <path
     fill-opacity="0.248"
     d="M 739 890.090 C 708.358 894.034, 680.732 905.350, 655.521 924.282 C 644.724 932.391, 567.228 1009.835, 562.742 1017 C 556.027 1027.724, 554.577 1033.055, 554.577 1047 C 554.577 1057.776, 554.902 1060.328, 556.938 1065.500 C 562.309 1079.150, 571.668 1089.760, 583.455 1095.559 C 597.291 1102.367, 583.062 1101.963, 809.750 1101.983 L 1015 1102 1015.017 1305.750 C 1015.032 1479.104, 1015.249 1510.512, 1016.473 1516.287 C 1021.695 1540.930, 1043.439 1558.876, 1068.500 1559.227 C 1078.122 1559.362, 1085.299 1557.809, 1094 1553.710 C 1099.892 1550.934, 1105.304 1545.866, 1151.820 1499.574 C 1180.046 1471.483, 1205.379 1445.575, 1208.115 1442 C 1214.046 1434.250, 1221.023 1420.367, 1224.198 1410 L 1226.495 1402.500 1226.784 1156.500 C 1227.001 971.139, 1226.784 909.450, 1225.903 906.240 C 1224.425 900.852, 1218.259 893.788, 1212.673 891.084 L 1208.369 889 976.934 889.127 C 849.645 889.197, 742.575 889.630, 739 890.090 M 1120.141 1032.557 L 1064.783 1088.397 1065.391 1092.838 C 1065.726 1095.281, 1066 1189.451, 1066 1302.104 L 1066 1506.930 1068.124 1508.066 C 1070.078 1509.112, 1074.040 1505.417, 1117.679 1461.851 C 1144.784 1434.792, 1166.804 1411.981, 1169.064 1408.622 C 1176.583 1397.447, 1176.033 1415.855, 1175.752 1184.594 L 1175.500 976.716 1120.141 1032.557 M 680.655 1145.597 C 664.194 1148.571, 650.566 1154.547, 637.500 1164.521 C 633.650 1167.460, 614.658 1185.776, 595.296 1205.223 C 563.429 1237.228, 559.794 1241.216, 556.951 1247.291 C 548.672 1264.984, 553.793 1285.318, 569.524 1297.216 C 579.878 1305.046, 570.331 1304.468, 694.250 1304.771 L 805 1305.042 805.078 1402.271 C 805.121 1455.747, 805.482 1506.475, 805.880 1515 C 806.520 1528.732, 806.902 1531.152, 809.231 1536.218 C 816.615 1552.278, 834.528 1561.736, 852.179 1558.894 C 863.879 1557.010, 865.851 1555.432, 904.365 1517.149 C 924.091 1497.542, 942.896 1477.950, 946.153 1473.612 C 953.641 1463.641, 959.296 1451.992, 962.775 1439.372 L 965.498 1429.500 965.499 1296.500 C 965.500 1165.979, 965.463 1163.425, 963.521 1159.500 C 962.432 1157.300, 959.702 1153.658, 957.453 1151.406 C 949.539 1143.481, 959.347 1143.989, 816.072 1144.090 C 710.632 1144.164, 687.139 1144.425, 680.655 1145.597 M 885.250 1264.250 L 860 1289.514 860 1385.757 C 860 1438.691, 860.352 1482, 860.781 1482 C 861.211 1482, 870.838 1472.662, 882.174 1461.250 C 904.491 1438.784, 907.697 1434.306, 909.951 1422.460 C 910.757 1418.221, 911 1390.870, 910.792 1327.743 L 910.500 1238.985 885.250 1264.250 M 1.250 2083.689 C 2.212 2083.941, 3.788 2083.941, 4.750 2083.689 C 5.713 2083.438, 4.925 2083.232, 3 2083.232 C 1.075 2083.232, 0.288 2083.438, 1.250 2083.689 M 9.813 2083.683 C 10.534 2083.972, 11.397 2083.936, 11.729 2083.604 C 12.061 2083.272, 11.471 2083.036, 10.417 2083.079 C 9.252 2083.127, 9.015 2083.364, 9.813 2083.683 M 18.750 2083.723 C 20.538 2083.945, 23.462 2083.945, 25.250 2083.723 C 27.038 2083.502, 25.575 2083.320, 22 2083.320 C 18.425 2083.320, 16.962 2083.502, 18.750 2083.723 "
     stroke="none"
     fill="black"
     fill-rule="evenodd"
     id="path6" />
  <path
     fill-opacity="0.171"
     d="M 742 889.689 C 707.787 893.291, 671.704 909.317, 646.363 932.164 C 641.888 936.199, 621.344 956.640, 600.710 977.588 C 569.542 1009.230, 562.666 1016.718, 560.085 1021.831 C 544.788 1052.134, 559.656 1088.289, 591.928 1099.265 L 598.500 1101.500 806.750 1101.766 L 1015 1102.032 1015.017 1305.766 C 1015.037 1531.469, 1014.598 1516.718, 1021.695 1530.257 C 1036.221 1557.967, 1070.527 1567.504, 1097.684 1551.382 C 1106.985 1545.860, 1204.653 1447.620, 1211.815 1436.582 C 1218.384 1426.458, 1222.763 1415.899, 1225.112 1404.518 C 1226.898 1395.868, 1226.973 1385.571, 1226.965 1152 C 1226.956 909.175, 1226.950 908.488, 1224.919 904 C 1222.184 897.957, 1218.509 894.224, 1212.500 891.383 L 1207.500 889.020 976.500 889.170 C 849.450 889.252, 743.925 889.486, 742 889.689 M 1120.500 1032.246 L 1065.500 1087.500 1065.766 1297.223 L 1066.032 1506.947 1068.155 1508.083 C 1070.108 1509.128, 1074.215 1505.277, 1119.587 1459.859 C 1165.672 1413.728, 1169.113 1410.042, 1172.198 1403.500 L 1175.500 1396.500 1175.761 1236 C 1175.904 1147.725, 1175.904 1053.336, 1175.761 1026.246 L 1175.500 976.993 1120.500 1032.246 M 1.250 2083.689 C 2.212 2083.941, 3.788 2083.941, 4.750 2083.689 C 5.713 2083.438, 4.925 2083.232, 3 2083.232 C 1.075 2083.232, 0.288 2083.438, 1.250 2083.689 M 9.813 2083.683 C 10.534 2083.972, 11.397 2083.936, 11.729 2083.604 C 12.061 2083.272, 11.471 2083.036, 10.417 2083.079 C 9.252 2083.127, 9.015 2083.364, 9.813 2083.683 M 18.750 2083.723 C 20.538 2083.945, 23.462 2083.945, 25.250 2083.723 C 27.038 2083.502, 25.575 2083.320, 22 2083.320 C 18.425 2083.320, 16.962 2083.502, 18.750 2083.723 "
     stroke="none"
     fill="black"
     fill-rule="evenodd"
     id="path8" />
  <path
     style="fill:#a0a0a0;stroke:none;stroke-width:2.86658"
     d="m 1300.9738,1551.1471 c -9.2897,-5.8914 -15.2219,-12.6485 -20.6272,-23.4954 l -7.5873,-15.2258 V 1176.1662 839.90646 l -301.70703,-0.2282 c -165.93886,-0.12556 -320.63347,-1.10859 -343.76581,-2.18465 -41.47843,-1.92943 -42.21021,-2.07881 -53.03164,-10.82536 -14.01053,-11.3242 -20.51877,-22.54001 -22.81946,-39.32538 -3.58828,-26.17937 -1.2897,-29.12799 105.72585,-135.62486 90.97279,-90.53187 99.75978,-98.47565 119.68061,-108.19591 43.59756,-21.27318 11.88989,-19.69718 423.52488,-21.05101 l 370.4933,-1.21852 8.6832,8.68318 8.6832,8.68317 -0.8543,374.95328 c -0.9343,410.0857 0.4485,379.173 -18.7595,419.3852 -9.5854,20.0672 -16.7738,28.0548 -107.9129,119.9122 -53.7038,54.1272 -101.1266,100.2432 -105.384,102.4801 -4.2574,2.2369 -15.292,4.0671 -24.5213,4.0671 -13.5718,0 -19.2741,-1.5813 -29.8206,-8.2697 z m 122.2807,-132.8558 c 61.126,-61.6557 91.295,-94.1746 96.6525,-104.1813 17.195,-32.116 16.5772,-18.2129 16.5772,-373.04239 0,-178.61469 -0.961,-324.75399 -2.1354,-324.75399 -1.1745,0 -48.903,46.75437 -106.0633,103.89861 l -103.9279,103.89863 v 219.30774 c 0.01,281.699 2.7237,464.3815 6.9129,464.4532 1.7141,0.029 43.1052,-40.2819 91.9803,-89.5805 z"
     id="path443" />
  <path
     style="fill:#a0a0a0;stroke:none;stroke-width:2.86658"
     d="m 1319.6513,1556.493 c -15.7452,-3.4238 -28.8812,-13.8077 -38.0747,-30.0977 l -8.8173,-15.6234 V 1175.3392 839.90646 l -25.0825,-0.33381 c -13.7954,-0.1836 -166.978,-1.15107 -340.40582,-2.14993 -308.46951,-1.77664 -315.53472,-1.94073 -325.05234,-7.54927 -17.40322,-10.25534 -27.02139,-25.17037 -28.38459,-44.01631 -0.88129,-12.18378 0.1543,-19.33777 3.83198,-26.4718 5.55439,-10.7745 146.76307,-154.73116 183.59515,-187.16798 26.43312,-23.27879 44.42364,-33.93056 68.76085,-40.7117 15.16935,-4.22667 56.66447,-4.98829 388.20627,-7.12535 l 371.2215,-2.39283 9.1421,9.18095 c 8.4979,8.53393 9.1511,10.59509 9.2692,29.24698 0.8174,129.14388 -3.4545,682.38609 -5.4782,709.47729 -2.5252,33.8026 -3.3603,37.2118 -14.7443,60.1891 -11.5392,23.2908 -16.0925,28.4165 -104.025,117.1021 -50.5766,51.0098 -96.4723,96.2972 -101.9905,100.6386 -10.7742,8.4768 -27.2299,11.8762 -41.9718,8.6705 z m 58.5991,-92.3898 c 46.7296,-46.3313 116.3021,-117.5666 131.5071,-134.6501 14.0275,-15.7605 20.8785,-31.762 23.9799,-56.0087 3.2801,-25.6428 2.662,-657.13078 -0.6432,-657.13078 -1.15,0 -48.6982,46.06182 -105.6625,102.3596 l -103.5715,102.3596 1.2633,336.94298 c 0.6948,185.3187 2.2471,339.8455 3.4496,343.3928 1.2025,3.5474 2.9513,6.4498 3.8863,6.4498 0.9349,0 21.5409,-19.6718 45.791,-43.7152 z"
     id="path482" />
  <path
     style="fill:#a0a0a0;stroke:none;stroke-width:2.86658"
     d="m 1319.6513,1556.493 c -15.5711,-3.386 -29.0835,-13.9466 -38.1738,-29.8347 l -8.7182,-15.2379 V 1175.7469 840.07333 l -85.2806,-0.80006 c -46.9044,-0.44005 -190.41226,-1.13947 -318.90649,-1.55426 -128.49422,-0.41479 -244.2108,-1.55503 -257.14796,-2.53382 -26.51344,-2.00597 -36.10837,-6.47912 -48.36424,-22.54739 -10.4074,-13.64482 -12.9599,-38.50276 -5.46815,-53.25246 6.9207,-13.62542 188.43829,-194.52706 208.04097,-207.33502 27.64306,-18.06138 41.84992,-21.89433 91.36206,-24.64914 24.49861,-1.36308 194.97991,-3.10961 378.84731,-3.88119 l 334.3044,-1.40286 8.7662,9.11612 c 7.9265,8.24275 8.8151,11.03859 9.2757,29.18216 1.3656,53.79595 -3.6872,678.20959 -5.738,709.08709 -2.2423,33.7613 -2.9326,36.6098 -14.5588,60.0724 -11.7334,23.679 -15.8705,28.329 -107.0868,120.3641 -52.1851,52.6535 -98.1068,97.9967 -102.0484,100.7627 -8.4112,5.9027 -26.3653,8.5616 -39.1052,5.7913 z m 95.1072,-129.6553 c 98.4519,-99.3687 105.4547,-107.2436 113.5607,-127.7017 l 6.4758,-16.3437 0.1278,-280.9243 c 0.071,-154.50844 -0.5169,-304.515 -1.3052,-333.34796 l -1.4333,-52.42356 -104.2167,102.4351 -104.2167,102.43511 1.3907,336.97611 c 0.765,185.3368 2.3419,339.8785 3.5043,343.4258 1.1625,3.5474 2.9608,6.4498 3.9963,6.4498 1.0355,0 37.9878,-36.4413 82.1163,-80.9807 z"
     id="path521" />
  <path
     style="fill:#a0a0a0;stroke:none;stroke-width:2.86658"
     d="m 1319.6513,1556.493 c -15.4814,-3.3665 -29.5454,-14.2239 -38.3821,-29.6311 l -8.4561,-14.7436 -0.027,-336.1059 -0.027,-336.10594 -66.6479,-0.0368 c -172.0954,-0.0951 -562.7937,-3.13603 -588.73786,-4.58237 -32.59145,-1.81692 -41.1441,-5.38348 -54.31353,-22.64949 -10.4309,-13.67563 -12.96589,-38.52691 -5.43209,-53.25246 7.28221,-14.23379 184.00184,-190.83478 205.5785,-205.44049 29.00242,-19.63237 43.17587,-23.70044 92.32534,-26.49925 23.72673,-1.35111 194.09424,-3.23401 378.59444,-4.18421 l 335.4549,-1.72765 9.049,9.40782 c 8.1964,8.5214 9.1128,11.29848 9.7257,29.47385 1.5172,44.98725 -3.791,679.02679 -5.9486,710.53979 -2.1956,32.0668 -3.0345,35.4538 -14.5557,58.7648 -11.79,23.855 -15.6067,28.1436 -107.0772,120.318 -52.1682,52.5697 -98.0762,97.8564 -102.0178,100.6371 -8.3979,5.9246 -26.3395,8.5939 -39.1052,5.8179 z m 90.8819,-125.3554 c 116.699,-117.7921 119.8056,-121.8271 122.8962,-159.6224 1.6716,-20.4433 1.3165,-652.16223 -0.3676,-653.84634 -0.499,-0.49903 -47.8419,45.10869 -105.2064,101.35049 l -104.299,102.25782 1.5014,336.82083 c 0.8258,185.2515 2.4341,339.0783 3.5739,341.8374 1.1399,2.759 3.5799,5.0165 5.4224,5.0165 1.8424,0 36.258,-33.2165 76.4791,-73.8143 z"
     id="path560" />
  <path
     style="fill:#458183;stroke:none;stroke-width:2.86658;fill-opacity:1"
     d="m 1316.8033,1556.6059 c -13.8973,-3.191 -26.2127,-13.4913 -35.5076,-29.6975 l -8.4826,-14.7901 -0.027,-336.1059 -0.027,-336.10594 -93.8803,-0.009 c -169.4004,-0.0116 -531.85047,-3.00326 -561.50546,-4.63328 -32.59567,-1.79167 -41.13529,-5.34926 -54.31353,-22.62679 -10.39796,-13.63244 -12.95748,-38.493 -5.48262,-53.25246 6.52337,-12.88068 190.84141,-196.77183 208.92961,-208.44571 25.48226,-16.44591 42.06418,-20.82012 89.12724,-23.51129 23.67037,-1.35352 193.96216,-3.28594 378.42626,-4.29427 l 335.3893,-1.83334 9.6029,9.95641 9.6029,9.95641 -0.2036,61.19928 c -0.9484,285.30254 -4.1232,640.58028 -5.9649,667.51238 -2.4275,35.4999 -7.8301,52.8638 -24.0713,77.365 -8.5557,12.9071 -186.143,193.7752 -199.6594,203.3481 -8.4005,5.9496 -29.167,8.9035 -41.9532,5.9676 z m 92.271,-124.0351 c 91.0858,-91.615 114.504,-118.4463 120.2412,-137.7657 3.7437,-12.6062 4.3237,-58.7388 4.3267,-344.12177 0,-181.26018 -0.6062,-330.17369 -1.3514,-330.91891 -0.7452,-0.74521 -48.0163,44.28952 -105.0467,100.07719 l -103.6919,101.43212 1.6263,336.82257 c 0.8944,185.2524 2.5036,339.08 3.576,341.8391 1.0723,2.759 3.3913,5.0165 5.1533,5.0165 1.762,0 35.587,-32.5715 75.1665,-72.3811 z"
     id="path599" />
  <path
     style="fill:#458183;fill-opacity:1;stroke-width:2.86658"
     d="m 1044.8219,1551.2371 c -5.4936,-2.9222 -13.8582,-10.7721 -18.5881,-17.4443 l -8.5997,-12.1312 -0.8054,-210.3602 -0.8054,-210.3602 -211.32112,-0.8049 c -233.86868,-0.8907 -220.12318,0.2397 -236.70349,-19.4649 -11.02893,-13.1072 -14.48783,-29.0057 -10.19954,-46.8813 3.26611,-13.6147 6.99682,-18.1427 51.08497,-62.00347 48.56006,-48.30956 64.73294,-60.45035 96.4878,-72.43217 l 17.00497,-6.41636 244.44334,-0.77912 244.44337,-0.77913 7.0986,7.09862 7.0986,7.09862 v 247.98151 c 0,247.0084 -0.023,248.0466 -6.1869,264.5718 -5.479,14.6921 -12.5698,23.0493 -61.9723,73.0404 -30.682,31.0475 -60.0194,58.4592 -65.1941,60.9147 -12.805,6.0764 -35.0167,5.6778 -47.2856,-0.8484 z m 89.6437,-104.1469 c 20.88,-22.0534 38.8404,-42.2432 39.912,-44.866 2.6624,-6.5164 2.888,-424.72214 0.2291,-424.72214 -1.1673,0 -26.3215,24.17404 -55.8982,53.72004 l -53.7759,53.7199 v 210.9605 c 0,116.0282 0.8274,211.7878 1.8386,212.799 3.0609,3.0609 27.6664,-19.3335 67.6944,-61.6113 z"
     id="path1675" />
  <path
     style="fill:#ff0000;fill-opacity:1;stroke-width:2.86658"
     d="m 1042.8314,1548.0517 c -5.0609,-3.0858 -12.3581,-10.4983 -16.2159,-16.4721 l -7.0143,-10.8616 -1.1902,-208.5111 c -0.6547,-114.6812 -2.0617,-209.3826 -3.1268,-210.4477 -1.0652,-1.0652 -96.42911,-2.7792 -211.91991,-3.8091 -152.7125,-1.3617 -212.21199,-2.8075 -218.15488,-5.3008 -22.79238,-9.5623 -33.74714,-40.5661 -23.22857,-65.7406 5.57825,-13.3506 85.11295,-92.51406 108.30095,-107.79541 9.18649,-6.05407 24.22995,-13.95731 33.42991,-17.56275 l 16.72721,-6.55534 245.11888,-1.02357 245.11881,-1.02356 7.3921,6.94449 7.3921,6.9445 -0.2634,186.54434 c -0.3473,245.9077 -2.3753,314.5595 -9.7448,329.8731 -5.7612,11.9715 -90.0641,100.0546 -114.2286,119.3506 -12.7291,10.1646 -15.3304,11.0776 -31.5323,11.0678 -12.4701,-0.01 -20.3624,-1.6592 -26.8603,-5.6212 z m 45.7754,-53.6396 c 9.8401,-8.9502 33.6931,-33.0738 53.0067,-53.6082 l 35.1155,-37.3352 v -212.9833 c 0,-134.2358 -1.018,-212.98334 -2.7533,-212.98334 -1.5143,0 -26.6685,23.37624 -55.8982,51.94724 l -53.1449,51.9472 v 214.6443 c 0,142.4175 0.973,214.6442 2.8915,214.6442 1.5903,0 10.9425,-7.3228 20.7827,-16.2729 z"
     id="path1714" />
  <path
     style="fill:#4c566a;fill-opacity:1;stroke-width:2.86658"
     d="m 838.51073,1557.0004 c -3.9209,-0.5648 -10.71265,-3.5788 -15.09278,-6.6977 -16.42249,-11.6938 -16.4771,-12.1372 -16.4771,-133.7951 V 1304.846 l -112.64175,-0.9938 c -102.73735,-0.9065 -113.33561,-1.4487 -120.533,-6.1661 -10.94913,-7.1766 -19.0604,-21.5563 -19.07313,-33.8131 -0.0145,-13.924 8.64489,-25.0857 53.3513,-68.7685 53.34582,-52.1244 37.86281,-48.4745 205.63003,-48.4745 132.16851,0 135.66828,0.1435 141.75322,5.8125 3.43143,3.1968 6.95368,8.6792 7.82718,12.1829 0.8735,3.5038 1.21161,66.3835 0.75136,139.7328 l -0.83687,133.3624 -9.179,18.6388 c -7.37226,14.9701 -17.24641,26.5826 -50.16507,58.9969 -41.90525,41.263 -46.70674,44.3245 -65.31439,41.6441 z m 46.44881,-97.2609 c 15.18364,-15.6026 22.63011,-25.6969 24.84701,-33.6822 3.62541,-13.0588 4.54455,-187.6969 0.98788,-187.6969 -1.21534,0 -13.46995,11.3126 -27.23246,25.1392 l -25.02277,25.1393 v 96.6902 c 0,53.1796 1.06625,96.6902 2.36948,96.6902 1.30321,0 12.1261,-10.0259 24.05086,-22.2798 z"
     id="path1938" />
</svg>
