<?xml version="1.0" encoding="utf-8"?>
<!-- Generator: Adobe Illustrator 26.0.1, SVG Export Plug-In . SVG Version: 6.00 Build 0)  -->
<svg version="1.1" id="Layer_1" xmlns="http://www.w3.org/2000/svg" xmlns:xlink="http://www.w3.org/1999/xlink" x="0px" y="0px"
	 viewBox="0 0 500 500" style="enable-background:new 0 0 500 500;" xml:space="preserve">
<style type="text/css">
	.st0{fill:#F1F3F7;}
	.st1{fill:#458183;}
	.st2{fill:#EC1E24;}
	.st3{fill:#4C566A;}
</style>
<rect class="st0" width="500" height="500"/>
<g>
	<g>
		<g>
			<g>
				<g>
					<path class="st1" d="M300.24,350c-1.46,0-2.93-0.28-4.34-0.87c-4.25-1.76-7-5.88-7.01-10.5l-0.17-132.47
						c0-1.42,0.56-2.78,1.56-3.78l50.64-50.82c1.52-1.53,3.8-1.98,5.8-1.16c1.99,0.83,3.28,2.77,3.28,4.93v134.55
						c0,9.59-3.72,18.61-10.48,25.38l-31.27,31.39C306.08,348.84,303.19,350,300.24,350z M299.36,208.37l0.17,130.25
						c0,0.15,0,0.47,0.43,0.65c0.43,0.18,0.66-0.04,0.77-0.15L332,307.73c4.75-4.76,7.36-11.1,7.36-17.84V168.22L299.36,208.37z"/>
				</g>
			</g>
			<g>
				<g>
					<g>
						<path class="st1" d="M294.04,206.16l50.64-50.82H209.89c-8.08,0-15.82,3.22-21.53,8.95l-31.27,31.39
							c-3.79,3.8-1.11,10.31,4.25,10.31L294.04,206.16z"/>
					</g>
				</g>
				<g>
					<g>
						<path class="st1" d="M294.04,211.5C294.04,211.5,294.04,211.5,294.04,211.5l-132.72-0.17c-4.6-0.01-8.7-2.77-10.46-7.03
							c-1.76-4.26-0.79-9.13,2.46-12.39l31.27-31.39c6.75-6.78,15.74-10.51,25.29-10.51h134.79c2.15,0,4.09,1.3,4.91,3.3
							c0.82,1.99,0.37,4.29-1.15,5.81l-50.64,50.82C296.81,210.93,295.45,211.5,294.04,211.5z M209.89,160.67
							c-6.62,0-13.09,2.69-17.77,7.39l-31.27,31.39c-0.11,0.11-0.33,0.33-0.15,0.77c0.18,0.43,0.49,0.44,0.65,0.44l130.5,0.17
							l40-40.15H209.89z"/>
					</g>
				</g>
			</g>
		</g>
		<g>
			<g>
				<path class="st2" d="M250,349.48c-1.35,0-2.72-0.26-4.03-0.81c-3.94-1.63-6.49-5.46-6.5-9.74l-0.1-82.2
					c0-1.31,0.52-2.58,1.44-3.51l31.06-31.18c1.41-1.42,3.53-1.84,5.37-1.07c1.84,0.77,3.04,2.57,3.04,4.57v90.43
					c0,4.8-1.86,9.31-5.24,12.7l-17.64,17.7C255.41,348.41,252.73,349.48,250,349.48z M249.25,258.77l0.09,80.15
					c0,0.14,0,0.44,0.4,0.6c0.4,0.17,0.61-0.04,0.71-0.14l17.64-17.7c1.52-1.52,2.35-3.55,2.35-5.7V237.5L249.25,258.77z"/>
			</g>
			<g>
				<path class="st2" d="M244.26,256.73l31.06-31.18H190.6c-7.49,0-14.67,2.99-19.97,8.3l-13.17,13.21
					c-3.51,3.53-1.03,9.56,3.94,9.56L244.26,256.73z"/>
				<path class="st2" d="M244.26,261.67C244.26,261.67,244.26,261.67,244.26,261.67l-82.86-0.1c-4.26,0-8.07-2.56-9.7-6.52
					c-1.63-3.96-0.74-8.47,2.28-11.49l13.17-13.21c6.26-6.29,14.59-9.75,23.45-9.75h84.73c1.99,0,3.79,1.21,4.56,3.05
					c0.76,1.85,0.34,3.98-1.07,5.39l-31.06,31.18C246.82,261.15,245.57,261.67,244.26,261.67z M190.6,230.5
					c-6.14,0-12.14,2.5-16.48,6.85l-13.17,13.21c-0.1,0.1-0.31,0.31-0.14,0.71c0.16,0.4,0.46,0.4,0.6,0.4l80.81,0.1l21.2-21.28
					H190.6z"/>
			</g>
		</g>
		<g>
			<g>
				<path class="st3" d="M206.99,349.48c-1,0-2.01-0.2-2.97-0.6c-2.9-1.21-4.78-4.03-4.78-7.18l-0.07-46.36
					c0-1.42,0.56-2.78,1.56-3.78l20.33-20.4c1.52-1.53,3.8-1.98,5.8-1.16c1.99,0.83,3.28,2.77,3.28,4.93v46.51
					c0,5.17-2.01,10.04-5.66,13.7l-12.01,12.05C210.98,348.69,209,349.48,206.99,349.48z M209.87,341.68L209.87,341.68
					C209.87,341.69,209.87,341.69,209.87,341.68z M209.81,297.54l0.05,37.17l7.09-7.12c1.64-1.64,2.54-3.83,2.54-6.15v-33.63
					L209.81,297.54z"/>
			</g>
			<g>
				<path class="st3" d="M204.48,295.33l20.33-20.4h-46.13c-3.71,0-7.27,1.48-9.89,4.11l-12.01,12.06
					c-1.53,1.54-0.45,4.16,1.72,4.16L204.48,295.33z"/>
				<path class="st3" d="M204.48,300.67c0,0-0.01,0-0.01,0l-45.99-0.07c-3.14,0-5.94-1.89-7.15-4.8c-1.2-2.92-0.54-6.24,1.68-8.47
					l12.01-12.05c3.65-3.66,8.49-5.67,13.65-5.67h46.13c2.15,0,4.09,1.3,4.91,3.3c0.82,1.99,0.37,4.29-1.15,5.81l-20.33,20.4
					C207.25,300.11,205.89,300.67,204.48,300.67z M165.46,289.94l36.83,0.05l9.69-9.72h-33.3c-2.31,0-4.49,0.9-6.13,2.55
					L165.46,289.94z"/>
			</g>
		</g>
	</g>
</g>
</svg>
