<?xml version="1.0" encoding="utf-8"?>
<!-- Generator: Adobe Illustrator 26.0.1, SVG Export Plug-In . SVG Version: 6.00 Build 0)  -->
<svg version="1.1" id="Layer_1" xmlns="http://www.w3.org/2000/svg" xmlns:xlink="http://www.w3.org/1999/xlink" x="0px" y="0px"
	 viewBox="0 0 600 600" style="enable-background:new 0 0 600 600;" xml:space="preserve">
<style type="text/css">
	.st0{fill:#679E9E;stroke:#50566A;stroke-miterlimit:10;}
	.st1{fill:#DAE3EA;stroke:#50566A;stroke-linecap:round;stroke-linejoin:round;stroke-miterlimit:10;}
	.st2{fill:none;stroke:#FFFFFF;stroke-linecap:round;stroke-linejoin:round;stroke-miterlimit:10;}
	.st3{fill:#E1EEF9;stroke:#50566A;stroke-linecap:round;stroke-linejoin:round;stroke-miterlimit:10;}
	.st4{fill:#F0F7F7;}
	.st5{fill:#D3E4F4;}
	.st6{fill:#727A91;}
	.st7{fill:#FAD0CA;}
	.st8{fill:#50566A;}
	.st9{fill:#8696A8;}
	.st10{fill:#FFFFFF;}
	.st11{fill:#A0AEBC;}
	.st12{fill:none;stroke:#50566A;stroke-linecap:round;stroke-linejoin:round;stroke-miterlimit:10;}
	.st13{fill:#DDEBEA;stroke:#50566A;stroke-linecap:round;stroke-linejoin:round;stroke-miterlimit:10;}
	.st14{fill:#FFFFFF;stroke:#50566A;stroke-linecap:round;stroke-linejoin:round;stroke-miterlimit:10;}
	.st15{fill:none;stroke:#73A0D4;stroke-linecap:round;stroke-linejoin:round;stroke-miterlimit:10;}
	.st16{fill:#73A0D3;stroke:#50566A;stroke-linecap:round;stroke-linejoin:round;stroke-miterlimit:10;}
	.st17{fill:#50576A;stroke:#FFFFFF;stroke-linecap:round;stroke-linejoin:round;stroke-miterlimit:10;}
	.st18{fill:#50576A;stroke:#50566A;stroke-linecap:round;stroke-linejoin:round;stroke-miterlimit:10;}
	.st19{clip-path:url(#SVGID_00000124839902110967350800000015063879503984145049_);}
	.st20{clip-path:url(#SVGID_00000124137131478129845180000012285791613843308690_);}
	.st21{opacity:0.75;fill:#F6FBFF;stroke:#50566A;stroke-linecap:round;stroke-linejoin:round;stroke-miterlimit:10;}
</style>
<g>
	<path class="st0" d="M95.36,448.78l103.73-185.1c7.45-13.29,21.49-21.52,36.73-21.52h285.67c13.31,0,21.71,14.33,15.2,25.94
		L432.96,453.2c-7.45,13.29-21.49,21.52-36.73,21.52H110.56C97.25,474.72,88.85,460.39,95.36,448.78z"/>
	<g>
		<path class="st1" d="M298.13,295.46v-12.64h-11.51c-0.79-3.83-2.3-7.39-4.38-10.56l8.14-8.14l-8.94-8.95l-8.14,8.14
			c-3.17-2.07-6.73-3.58-10.56-4.38v-11.51H250.1v11.51c-3.83,0.79-7.4,2.3-10.57,4.38l-8.14-8.14l-8.94,8.95l8.14,8.14
			c-2.07,3.17-3.58,6.73-4.38,10.56h-11.51v12.64h11.51c0.79,3.83,2.3,7.4,4.38,10.57l-8.14,8.14l8.94,8.94l8.14-8.14
			c3.17,2.07,6.74,3.58,10.57,4.38v11.51h12.64v-11.51c3.83-0.79,7.39-2.3,10.56-4.38l8.14,8.14l8.94-8.94l-8.14-8.14
			c2.07-3.17,3.58-6.74,4.38-10.57H298.13z M256.42,299.85c-5.92,0-10.71-4.79-10.71-10.71s4.79-10.71,10.71-10.71
			c5.92,0,10.71,4.79,10.71,10.71S262.34,299.85,256.42,299.85z"/>
		<circle class="st2" cx="256.42" cy="289.14" r="21"/>
	</g>
	<g>
		<path class="st1" d="M250.65,355.88v-10.89h-9.92c-0.68-3.3-1.99-6.37-3.77-9.1l7.02-7.01l-7.7-7.71l-7.02,7.02
			c-2.73-1.79-5.8-3.09-9.1-3.77v-9.92h-10.89v9.92c-3.3,0.68-6.37,1.99-9.1,3.77l-7.01-7.02l-7.7,7.71l7.01,7.01
			c-1.79,2.73-3.09,5.8-3.77,9.1h-9.91v10.89h9.91c0.68,3.3,1.99,6.37,3.77,9.1l-7.01,7.01l7.7,7.7l7.01-7.01
			c2.73,1.79,5.8,3.09,9.1,3.77v9.91h10.89v-9.91c3.3-0.68,6.37-1.99,9.1-3.77l7.02,7.01l7.7-7.7l-7.02-7.01
			c1.79-2.73,3.09-5.8,3.77-9.1H250.65z M214.71,359.66c-5.1,0-9.23-4.13-9.23-9.23c0-5.1,4.13-9.23,9.23-9.23
			c5.1,0,9.23,4.13,9.23,9.23C223.94,355.54,219.81,359.66,214.71,359.66z"/>
		<circle class="st2" cx="214.71" cy="350.44" r="18.09"/>
	</g>
	<path class="st3" d="M344.4,217.59h-71.25c-6.32,0-11.44-5.12-11.44-11.44V134.9c0-6.32,5.12-11.44,11.44-11.44h71.25
		c6.32,0,11.44,5.12,11.44,11.44v71.25C355.84,212.47,350.72,217.59,344.4,217.59z"/>
	<g>
		<g id="XMLID_00000116227085972246562850000000333875375732259462_">
			<g>
				<path class="st4" d="M356.2,327.18l10.31,19.64l-14.5,14.23L359,380.5l-34.93,51.21h-2.77v-0.1c0-0.93,0.12-1.86,0.37-2.75
					l26.96-98.34c0.51-1.84-0.88-3.66-2.79-3.66h-1.44h-3.75h-3.89h-0.07v-3.64h0.07h12.89c2.65,0,5.09,1.43,6.41,3.71
					C356.11,327.01,356.16,327.1,356.2,327.18z"/>
				<path class="st4" d="M339.14,446.4H321.3v-14.69h2.77L359,380.5l-6.99-19.45l14.5-14.23l-10.31-19.64
					c-0.04-0.08-0.09-0.17-0.14-0.25l0.12-0.07h24.04c7.47,0,14.13,4.69,16.64,11.72l39.76,111.23
					c4.34,12.14-4.66,24.91-17.55,24.91h-79.93v-3.71V446.4z"/>
				<path class="st5" d="M345.84,326.86c1.91,0,3.3,1.82,2.79,3.66l-26.96,98.34c-0.25,0.89-0.37,1.82-0.37,2.75v0.1v14.69h-0.2
					c-3.47,0-6.9,0.35-10.23,1.01l-0.19-1.01v-13.61c0-1.02-0.05-2.04-0.16-3.05l-10.16-97.52c-0.3-2.87,1.95-5.36,4.84-5.36h0.17
					c3.16,7.64,9.43,13.13,18.22,13.13c8.86,0,17.69-5.4,20.81-13.13H345.84z"/>
				<path class="st6" d="M347.98,258.92v22.22l-0.15,0.16c-1.07-1-2.33-1.74-3.72-2.16l0.13-0.39v-20.84c0-1.52-0.5-2.93-1.34-4.07
					C345.71,253.84,347.98,256.11,347.98,258.92z"/>
				<path class="st7" d="M336.69,326.86h0.07h3.89h3.75c-3.12,7.73-11.95,13.13-20.81,13.13c-8.79,0-15.06-5.49-18.22-13.13h3.34
					h4.04h0.08v-2.26l10.86-7.1h-10.58c-0.09,0-0.19,0-0.28-0.01c-9.89-0.14-17.87-8.2-17.87-18.14v-0.28v-19.02v-13.28
					c1.15,0.39,2.38,0.6,3.66,0.6h28.86v10.74c0,2.1,1.69,3.79,3.79,3.8c-1.77,1.94-2.86,4.63-2.86,7.6c0,5.38,3.59,9.83,8.28,10.64
					v6.48v16.59V326.86z M324.34,302.47v-1.25h-16.62v1.25c0,4.59,3.72,8.31,8.31,8.31S324.34,307.06,324.34,302.47z"/>
				<path class="st8" d="M339.85,278.9c0.54-0.1,1.09-0.15,1.66-0.15c0.9,0,1.78,0.13,2.6,0.39c1.39,0.42,2.65,1.16,3.72,2.16
					c2.12,1.97,3.47,4.92,3.47,8.21c0,4.01-2,7.51-4.96,9.35c-1.43,0.9-3.08,1.41-4.83,1.41c-0.57,0-1.12-0.05-1.66-0.15
					c-4.62-0.87-8.14-5.29-8.14-10.61S335.23,279.77,339.85,278.9z"/>
				<path class="st8" d="M339.85,278.9c-0.54-0.1-1.09-0.15-1.65-0.15c-0.07,0-0.14,0-0.2,0v-20.84c0-3.8-3.08-6.88-6.87-6.88h6.24
					c2.27,0,4.29,1.11,5.53,2.81c0.84,1.14,1.34,2.55,1.34,4.07v20.84l-0.13,0.39c-0.82-0.26-1.7-0.39-2.6-0.39
					C340.94,278.75,340.39,278.8,339.85,278.9z"/>
				<path class="st9" d="M339.14,474.72v1.81h-72.48c2.34,0,4.23-1.89,4.23-4.23v-3.67c0-2.33-1.89-4.23-4.23-4.23h15.45h50.43
					c3.65,0,6.6,2.96,6.6,6.61V474.72z"/>
				<path class="st7" d="M339.14,446.4v24.61c0-3.65-2.95-6.61-6.6-6.61h-50.43v-0.12l5.15-4.88c6.38-6.05,14.63-10.19,23.61-11.99
					c3.33-0.66,6.76-1.01,10.23-1.01h0.2H339.14z"/>
				<path class="st6" d="M336.76,306.63h-0.07v-6.48c0.49,0.08,0.99,0.12,1.51,0.12c0.56,0,1.11-0.05,1.65-0.15
					c0.54,0.1,1.09,0.15,1.66,0.15c1.75,0,3.4-0.51,4.83-1.41l0.01,0.01c0,4.28-3.48,7.76-7.77,7.76H336.76z"/>
				<path class="st8" d="M331.71,289.51c0,5.32,3.52,9.74,8.14,10.61c-0.54,0.1-1.09,0.15-1.65,0.15c-0.52,0-1.02-0.04-1.51-0.12
					c-4.69-0.81-8.28-5.26-8.28-10.64c0-2.97,1.09-5.66,2.86-7.6h0.01c1.72-1.9,4.09-3.1,6.72-3.16c0.06,0,0.13,0,0.2,0
					c0.56,0,1.11,0.05,1.65,0.15C335.23,279.77,331.71,284.19,331.71,289.51z"/>
				<path class="st6" d="M330.18,251.05l0.08-0.02h0.87c3.79,0,6.87,3.08,6.87,6.88v20.84c-2.63,0.06-5,1.26-6.72,3.16h-0.01
					c-2.1-0.01-3.79-1.7-3.79-3.8v-10.74h-28.86c-1.28,0-2.51-0.21-3.66-0.6c-4.5-1.52-7.74-5.78-7.74-10.8v-9.51h37.1
					C327.16,246.46,329.53,248.42,330.18,251.05z"/>
				<path class="st10" d="M324.34,301.22v1.25c0,4.59-3.72,8.31-8.31,8.31s-8.31-3.72-8.31-8.31v-1.25H324.34z"/>
				<path class="st8" d="M312.83,317.5v-0.01c0.09,0.01,0.19,0.01,0.28,0.01h10.58l-10.86,7.1v-1.38V317.5z"/>
				<path class="st8" d="M294.96,280.05v19.02c-3.15-1.79-5.3-5.4-5.3-9.56c0-4.09,2.07-7.64,5.13-9.46H294.96z"/>
				<path class="st4" d="M282.11,409.76l-19.9,44.48l-0.13,0.05c-0.16-0.45-0.36-0.91-0.61-1.35l-23.37-41.71l0.77-0.43l32.36-72.12
					c3.23-7.19,10.38-11.82,18.27-11.82h5.36c1.67-2.27,4.34-3.64,7.21-3.64h10.76v1.38v2.26h-0.08h-4.04h-3.34h-0.17
					c-2.89,0-5.14,2.49-4.84,5.36l10.16,97.52c0.11,1.01,0.16,2.03,0.16,3.05v13.61l0.19,1.01c-8.98,1.8-17.23,5.94-23.61,11.99
					l-5.15,4.88V409.76z"/>
				<path class="st9" d="M262.08,454.29c1.61,4.83-1.95,10.11-7.33,10.11h-1.36c2.78,0,4.54-3,3.18-5.43l-52.03-92.84
					c-1.27-2.26-3.66-3.66-6.25-3.66h8.92c2.2,0,4.22,1.18,5.3,3.1l25.59,45.66l23.37,41.71
					C261.72,453.38,261.92,453.84,262.08,454.29z"/>
				<path class="st11" d="M256.57,458.97c1.36,2.43-0.4,5.43-3.18,5.43h-4.38H134.39h-14.58c-2.59,0-4.98-1.4-6.25-3.66L61.53,367.9
					c-1.36-2.43,0.4-5.43,3.18-5.43h128.34h5.24c2.59,0,4.98,1.4,6.25,3.66L256.57,458.97z"/>
				<path class="st11" d="M254.75,464.4h9.21h2.7c2.34,0,4.23,1.9,4.23,4.23v3.67c0,2.34-1.89,4.23-4.23,4.23h-2.7H141
					c-3.65,0-6.61-2.95-6.61-6.6v-5.53h114.62h4.38H254.75z"/>
			</g>
			<g>
				<path class="st12" d="M294.96,266.77v13.28v19.02v0.28c0,9.94,7.98,18,17.87,18.14c0.09,0.01,0.19,0.01,0.28,0.01h10.58h1.75"/>
				<polyline class="st12" points="312.83,331.02 312.83,326.86 312.83,324.6 312.83,323.22 312.83,317.5 				"/>
				<polyline class="st12" points="336.69,299.33 336.69,300.15 336.69,306.63 336.69,323.22 336.69,326.86 336.69,331.02 				"/>
				<path class="st12" d="M330.36,252.5c0-0.5-0.06-0.99-0.18-1.45c-0.65-2.63-3.02-4.59-5.86-4.59h-37.1v9.51
					c0,5.02,3.24,9.28,7.74,10.8c1.15,0.39,2.38,0.6,3.66,0.6h28.86v10.74c0,2.1,1.69,3.79,3.79,3.8"/>
				<path class="st12" d="M312.9,323.22h-0.07h-10.76c-2.87,0-5.54,1.37-7.21,3.64c-0.23,0.32-0.45,0.65-0.64,1l-11.16,20.27
					l7.98,12.92l-5.41,20.83l22,49.83"/>
				<line class="st12" x1="308.71" y1="326.86" x2="312.75" y2="326.86"/>
				<path class="st12" d="M310.68,446.4v-13.61c0-1.02-0.05-2.04-0.16-3.05l-10.16-97.52c-0.3-2.87,1.95-5.36,4.84-5.36h0.17"/>
				<path class="st12" d="M336.76,323.22h12.89c2.65,0,5.09,1.43,6.41,3.71c0.05,0.08,0.1,0.17,0.14,0.25l10.31,19.64l-14.5,14.23
					L359,380.5l-34.93,51.21"/>
				<path class="st12" d="M344.4,326.86h1.44c1.91,0,3.3,1.82,2.79,3.66l-26.96,98.34c-0.25,0.89-0.37,1.82-0.37,2.75v0.1v14.69"/>
				<line class="st12" x1="336.76" y1="326.86" x2="340.65" y2="326.86"/>
				<path class="st12" d="M340.65,326.86h3.75c-3.12,7.73-11.95,13.13-20.81,13.13c-8.79,0-15.06-5.49-18.22-13.13h3.34"/>
				<polyline class="st12" points="339.14,471.01 339.14,446.4 339.14,441.32 392.74,441.32 409.12,441.32 				"/>
				<path class="st12" d="M356.18,326.86h24.04c7.47,0,14.13,4.69,16.64,11.72l39.76,111.23c4.34,12.14-4.66,24.91-17.55,24.91
					h-79.93"/>
				<line class="st12" x1="371.91" y1="380.26" x2="392.74" y2="441.32"/>
				<path class="st12" d="M294.86,326.86h-5.36c-7.89,0-15.04,4.63-18.27,11.82l-32.36,72.12"/>
				<polyline class="st12" points="282.11,388.76 282.11,409.76 282.11,464.28 282.11,464.4 				"/>
				<line class="st12" x1="282.11" y1="409.76" x2="262.21" y2="454.24"/>
				<path class="st12" d="M339.14,446.4H321.3h-0.2c-3.47,0-6.9,0.35-10.23,1.01c-8.98,1.8-17.23,5.94-23.61,11.99l-5.15,4.88
					l-0.06,0.06"/>
				<path class="st12" d="M331.13,251.03h6.24c2.27,0,4.29,1.11,5.53,2.81c0.84,1.14,1.34,2.55,1.34,4.07v20.84"/>
				<path class="st12" d="M330.26,251.03h0.87c3.79,0,6.87,3.08,6.87,6.88v20.84"/>
				<path class="st12" d="M339.85,300.12c-4.62-0.87-8.14-5.29-8.14-10.61s3.52-9.74,8.14-10.61c0.54-0.1,1.09-0.15,1.66-0.15
					c0.9,0,1.78,0.13,2.6,0.39c1.39,0.42,2.65,1.16,3.72,2.16c2.12,1.97,3.47,4.92,3.47,8.21c0,4.01-2,7.51-4.96,9.35
					c-1.43,0.9-3.08,1.41-4.83,1.41C340.94,300.27,340.39,300.22,339.85,300.12z"/>
				<path class="st12" d="M294.96,299.07c-3.15-1.79-5.3-5.4-5.3-9.56c0-4.09,2.07-7.64,5.13-9.46"/>
				<path class="st12" d="M339.85,300.12c-0.54,0.1-1.09,0.15-1.65,0.15c-0.52,0-1.02-0.04-1.51-0.12
					c-4.69-0.81-8.28-5.26-8.28-10.64c0-2.97,1.09-5.66,2.86-7.6h0.01c1.72-1.9,4.09-3.1,6.72-3.16c0.06,0,0.13,0,0.2,0
					c0.56,0,1.11,0.05,1.65,0.15"/>
				<path class="st12" d="M316.03,310.78c-4.59,0-8.31-3.72-8.31-8.31v-1.25h16.62v1.25C324.34,307.06,320.62,310.78,316.03,310.78z
					"/>
				<path class="st12" d="M198.29,362.47c2.59,0,4.98,1.4,6.25,3.66l52.03,92.84c1.36,2.43-0.4,5.43-3.18,5.43"/>
				<path class="st12" d="M134.39,464.4h-14.58c-2.59,0-4.98-1.4-6.25-3.66L61.53,367.9c-1.36-2.43,0.4-5.43,3.18-5.43h128.34"/>
				<path class="st12" d="M193.05,362.47h5.24h8.92c2.2,0,4.22,1.18,5.3,3.1l25.59,45.66l23.37,41.71c0.25,0.44,0.45,0.9,0.61,1.35
					c1.61,4.83-1.95,10.11-7.33,10.11"/>
				<path class="st12" d="M266.66,464.4c2.34,0,4.23,1.9,4.23,4.23v3.67c0,2.34-1.89,4.23-4.23,4.23"/>
				<path class="st12" d="M263.96,476.53H141c-3.65,0-6.61-2.95-6.61-6.6v-5.53h114.62h4.38h1.36h9.21"/>
				<path class="st12" d="M263.96,464.4h2.7h15.45h50.43c3.65,0,6.6,2.96,6.6,6.61v3.71v1.81h-72.48h-2.7"/>
				<line class="st12" x1="312.83" y1="324.6" x2="323.69" y2="317.5"/>
				<path class="st12" d="M342.9,253.84c2.81,0,5.08,2.27,5.08,5.08v22.22"/>
				<path class="st12" d="M336.76,306.63h1.82c4.29,0,7.77-3.48,7.77-7.76"/>
				<path class="st12" d="M290.1,249.58c0,4.88,3.96,8.83,8.83,8.83h22.74c3.19,0,5.78,2.59,5.78,5.78"/>
			</g>
		</g>
		<path class="st2" d="M341.55,300.32c-5.41,0-9.79-4.82-9.79-10.76s4.39-10.76,9.79-10.76"/>
		<path class="st2" d="M294.21,296.92c-1.64-1.92-2.65-4.51-2.65-7.36c0-2.85,1.01-5.44,2.65-7.36"/>
	</g>
	<polygon class="st13" points="414.74,389.71 414.74,377.37 427.09,377.37 427.09,389.71 439.44,389.71 439.44,402.06 
		427.09,402.06 427.09,414.41 414.74,414.41 414.74,402.06 402.39,402.06 402.39,389.71 	"/>
	<polygon class="st13" points="446.8,341.17 446.8,322.65 465.32,322.65 465.32,341.17 483.85,341.17 483.85,359.7 465.32,359.7 
		465.32,378.22 446.8,378.22 446.8,359.7 428.28,359.7 428.28,341.17 	"/>
	<g>
		<path class="st3" d="M194.67,305.49h-71.25c-6.32,0-11.44-5.12-11.44-11.44V222.8c0-6.32,5.12-11.44,11.44-11.44h71.25
			c6.32,0,11.44,5.12,11.44,11.44v71.25C206.11,300.37,200.99,305.49,194.67,305.49z"/>
		<path class="st14" d="M193.05,305.49h-68.23v-68.15c0-1.67,1.35-3.02,3.02-3.02h62.2c1.67,0,3.02,1.35,3.02,3.02V305.49z"/>
		<line class="st14" x1="151.92" y1="247.43" x2="184.86" y2="247.43"/>
		<line class="st14" x1="151.92" y1="256.88" x2="184.86" y2="256.88"/>
		<line class="st14" x1="134.12" y1="266.34" x2="184.86" y2="266.34"/>
		<line class="st14" x1="134.12" y1="275.8" x2="184.86" y2="275.8"/>
		<line class="st14" x1="134.12" y1="285.25" x2="184.86" y2="285.25"/>
		<line class="st14" x1="134.12" y1="294.71" x2="184.86" y2="294.71"/>
		<g>
			<path class="st8" d="M139.12,248.1h-5.4v-1.15h12.1v1.15h-5.43v10.88h-1.26V248.1z"/>
		</g>
	</g>
	<g>
		<path class="st14" d="M340.22,156.83v36.44c0,3.74-3.03,6.76-6.76,6.76h-20.17l-16.24-49.97h36.41
			C337.19,150.07,340.22,153.1,340.22,156.83z"/>
		<g>
			<polyline class="st15" points="317.65,181.03 324.68,163.01 331.85,181.03 			"/>
			<line class="st15" x1="320.54" y1="173.63" x2="328.83" y2="173.63"/>
		</g>
		<path class="st16" d="M320.23,190.99h-36.14c-3.74,0-6.76-3.03-6.76-6.76v-36.44c0-3.73,3.03-6.76,6.76-6.76h19.9L320.23,190.99z"
			/>
		<g>
			<line class="st2" x1="294.96" y1="157.86" x2="294.96" y2="161.35"/>
			<line class="st17" x1="286.65" y1="161.35" x2="303.26" y2="161.35"/>
			<g>
				<path class="st2" d="M286.51,174.16c0,0,11.87-3.23,13.84-12.81"/>
				<path class="st2" d="M303.41,174.16c0,0-11.87-3.23-13.84-12.81"/>
			</g>
		</g>
		<polygon class="st18" points="313.29,200.03 320.23,190.99 310.35,190.99 		"/>
	</g>
	<g>
		<g>
			<defs>
				<path id="SVGID_1_" d="M433.29,305.49h71.25c6.32,0,11.44-5.12,11.44-11.44V222.8c0-6.32-5.12-11.44-11.44-11.44h-71.25
					c-6.32,0-11.44,5.12-11.44,11.44v71.25C421.85,300.37,426.97,305.49,433.29,305.49z"/>
			</defs>
			<clipPath id="SVGID_00000069370197450426154130000014110310202931807164_">
				<use xlink:href="#SVGID_1_"  style="overflow:visible;"/>
			</clipPath>
			<g style="clip-path:url(#SVGID_00000069370197450426154130000014110310202931807164_);">
				<path class="st3" d="M433.29,305.49h71.25c6.32,0,11.44-5.12,11.44-11.44V222.8c0-6.32-5.12-11.44-11.44-11.44h-71.25
					c-6.32,0-11.44,5.12-11.44,11.44v71.25C421.85,300.37,426.97,305.49,433.29,305.49z"/>
				<path class="st14" d="M434.91,305.49h68.23v-68.15c0-1.67-1.35-3.02-3.02-3.02h-62.2c-1.67,0-3.02,1.35-3.02,3.02V305.49z"/>
			</g>
			<g style="clip-path:url(#SVGID_00000069370197450426154130000014110310202931807164_);">
				<path class="st16" d="M413.05,289.51c0,19.62,15.91,35.54,35.54,35.54c19.64,0,35.55-15.91,35.55-35.54
					s-15.91-35.54-35.55-35.54C428.97,253.97,413.05,269.89,413.05,289.51z M420.1,289.51c0-15.74,12.76-28.5,28.49-28.5
					c15.74,0,28.51,12.77,28.51,28.5c0,15.74-12.77,28.51-28.51,28.51C432.85,318.02,420.1,305.25,420.1,289.51z"/>
				<g>
					<defs>
						<path id="SVGID_00000047753662717747514430000009402013075273824413_" d="M420.1,289.51c0-15.74,12.76-28.51,28.5-28.51
							s28.51,12.77,28.51,28.51c0,15.74-12.77,28.51-28.51,28.51S420.1,305.25,420.1,289.51z"/>
					</defs>
					<use xlink:href="#SVGID_00000047753662717747514430000009402013075273824413_"  style="overflow:visible;fill:#E1EEF9;"/>
					<clipPath id="SVGID_00000055697396143049195470000013297735717975513238_">
						<use xlink:href="#SVGID_00000047753662717747514430000009402013075273824413_"  style="overflow:visible;"/>
					</clipPath>
					<g style="clip-path:url(#SVGID_00000055697396143049195470000013297735717975513238_);">
						<path class="st14" d="M429.53,316.84h74.44v-74.35c0-1.82-1.47-3.29-3.29-3.29h-67.86c-1.82,0-3.29,1.47-3.29,3.29V316.84z"/>
						<path class="st21" d="M420.1,289.51c0-15.74,12.76-28.51,28.5-28.51s28.51,12.77,28.51,28.51c0,15.74-12.77,28.51-28.51,28.51
							S420.1,305.25,420.1,289.51z"/>
						<path class="st12" d="M446.04,265.91c13.9,0,25.17,11.27,25.17,25.17"/>
					</g>
					
						<use xlink:href="#SVGID_00000047753662717747514430000009402013075273824413_"  style="overflow:visible;fill:none;stroke:#50566A;stroke-linecap:round;stroke-linejoin:round;stroke-miterlimit:10;"/>
				</g>
			</g>
		</g>
		<path class="st12" d="M504.54,305.49h-71.25c-6.32,0-11.44-5.12-11.44-11.44V222.8c0-6.32,5.12-11.44,11.44-11.44h71.25
			c6.32,0,11.44,5.12,11.44,11.44v71.25C515.98,300.37,510.85,305.49,504.54,305.49z"/>
	</g>
</g>
</svg>
