<?xml version="1.0" encoding="utf-8"?>
<!-- Generator: Adobe Illustrator 26.0.1, SVG Export Plug-In . SVG Version: 6.00 Build 0)  -->
<svg version="1.1" id="Layer_1" xmlns="http://www.w3.org/2000/svg" xmlns:xlink="http://www.w3.org/1999/xlink" x="0px" y="0px"
	 viewBox="0 0 600 600" style="enable-background:new 0 0 600 600;" xml:space="preserve">
<style type="text/css">
	.st0{fill:#679E9E;}
	.st1{clip-path:url(#SVGID_00000157987815396558749240000009422289805725666488_);}
	.st2{fill:#F0F7F7;}
	.st3{fill:#FAD0CA;}
	.st4{fill:#727A91;}
	.st5{fill:#D3E4F4;}
	.st6{fill:#50566A;}
	.st7{fill:none;stroke:#50566A;stroke-linecap:round;stroke-linejoin:round;stroke-miterlimit:10;}
	.st8{fill:none;stroke:#50566B;stroke-miterlimit:10;}
	.st9{fill:#FFFFFF;}
	.st10{fill:#EE9E9A;}
	.st11{fill:#F1D28E;}
	.st12{fill:#ADD8D8;}
	
		.st13{clip-path:url(#SVGID_00000157987815396558749240000009422289805725666488_);fill:none;stroke:#50566A;stroke-linecap:round;stroke-linejoin:round;stroke-miterlimit:10;}
	.st14{fill:#DDEBEA;stroke:#50566A;stroke-linecap:round;stroke-linejoin:round;stroke-miterlimit:10;}
</style>
<g>
	<g>
		<g>
			<path class="st0" d="M48.6,420.04l118.18-210.88c8.49-15.14,24.49-24.52,41.84-24.52h325.46c15.17,0,24.73,16.32,17.32,29.56
				L433.22,425.08c-8.49,15.14-24.49,24.52-41.84,24.52H65.92C50.75,449.6,41.18,433.28,48.6,420.04z"/>
			<g>
				<defs>
					<path id="SVGID_1_" d="M46.04,150.4v277.65h0.08c-0.95,11.01,7.61,21.55,19.8,21.55h325.46c16.19,0,31.2-8.16,40.03-21.55h0.01
						l0.04-0.07c0.62-0.94,1.21-1.91,1.77-2.9l8.31-14.83l0,0l25.28-45.12l87.15,1.99V150.4H46.04z"/>
				</defs>
				<clipPath id="SVGID_00000155117497825420624730000014214932116433484418_">
					<use xlink:href="#SVGID_1_"  style="overflow:visible;"/>
				</clipPath>
				<g style="clip-path:url(#SVGID_00000155117497825420624730000014214932116433484418_);">
					<g id="XMLID_00000119811441464974544880000000108157725590728866_">
						<g>
							<polygon class="st2" points="216.85,364.12 216.85,452.96 175.7,452.96 175.7,359.48 							"/>
							<path class="st2" d="M212.75,335.72l2.78,0.35c2.92,0.37,5.27-2.36,4.46-5.2l-2.89-10.06c-0.97-3.38-3.92-5.82-7.43-6.13
								l-13.07-1.18l2.79-6.33l-5.11-19.7l7.54-12.22l-10.55-19.18c-0.09-0.17-0.19-0.33-0.3-0.49l0.83-0.02h10.63
								c6.14,0,11.6,3.91,13.59,9.72l28.31,78.81c4,11.12-5.06,22.56-16.79,21.24l-10.69-1.21l-41.15-4.64l-8.25-0.93l-0.05-0.13
								l21.39-7.49l-1.08-3.22l0.17-0.06l2.72-1.13l8.25-0.07c6.33-0.06,11.87-4.26,13.62-10.34l0.13-0.43L212.75,335.72z"/>
							<path class="st3" d="M212.6,335.68l-0.13,0.43c-1.75,6.08-7.29,10.28-13.62,10.34l-8.25,0.07l-2.72,1.13l-0.17,0.06
								l-6.36-19.05l0.17-0.06l0.73-5.7c0.77-5.9,6.06-10.14,11.98-9.61l2.37,0.21l13.07,1.18c3.51,0.31,6.46,2.75,7.43,6.13
								l2.89,10.06c0.81,2.84-1.54,5.57-4.46,5.2l-2.78-0.35L212.6,335.68z"/>
							<path class="st4" d="M194.85,192.76v3.53h-2.78h-34.83v10.42c0,2.44-1.98,4.42-4.42,4.42c-0.57-0.82-1.31-1.5-2.16-2.01
								c-1.59-0.95-3.62-0.95-5.21,0c-2.04,1.22-3.41,3.44-3.41,6c0,1.93,0.79,3.68,2.07,4.95c1.94,1.92,4.85,2.16,7.02,0.71v11.09
								c-8.09,0-14.65-6.56-14.65-14.65v-21.49c0-4.56,3.7-8.26,8.26-8.26h0.36c0-6.99,5.67-12.66,12.66-12.66h19.13
								C186.81,174.81,194.85,182.85,194.85,192.76z"/>
							<path class="st5" d="M181.19,255.14c2.58,0.17,4.54,2.45,4.27,5.06l-6.41,61.56l-1.09-3.26l-19.8,7l-18.35-66.91
								c-0.48-1.74,0.83-3.46,2.64-3.46h0.12c3.09,7.65,11.83,13,20.59,13c5.44,0,9.9-2.13,13.25-5.57
								C178.42,260.5,180.03,257.97,181.19,255.14z"/>
							<path class="st2" d="M182.25,322.9l-0.73,5.7l-0.17,0.06l-2.3-6.9l6.41-61.56c0.27-2.61-1.69-4.89-4.27-5.06l0.01-0.01h-0.31
								h-3h-3.28h-0.07v-3.44h9.31c2.9,0,5.57,1.48,7.12,3.89c0.11,0.16,0.21,0.32,0.3,0.49l10.55,19.18l-7.54,12.22l5.11,19.7
								l-2.79,6.33l-2.37-0.21C188.31,312.76,183.02,317,182.25,322.9z"/>
							<path class="st3" d="M180.89,255.13c0.1,0,0.2,0,0.3,0.01c-1.16,2.83-2.77,5.36-4.78,7.42l-1.87-1.91v-5.52h0.07h3.28H180.89
								z"/>
							<path class="st3" d="M148.41,215.77c-0.47,0-0.85,0.38-0.85,0.85c0,0.4,0.28,0.74,0.66,0.83c0.06,0.01,0.12,0.02,0.19,0.02
								c0.47,0,0.85-0.38,0.85-0.85c0-0.04,0-0.08-0.01-0.11C149.2,216.09,148.84,215.77,148.41,215.77z M151.13,220.78
								c-2.17,1.45-5.08,1.21-7.02-0.71c-1.28-1.27-2.07-3.02-2.07-4.95c0-2.56,1.37-4.78,3.41-6c1.59-0.95,3.62-0.95,5.21,0
								c0.85,0.51,1.59,1.19,2.16,2.01c2.44,0,4.42-1.98,4.42-4.42v-10.42h34.83v30.1c0,9.74-7.82,17.66-17.53,17.8
								c-0.09,0.01-0.19,0.01-0.28,0.01h-10.38l10.66,6.96v0.53v3.44v5.52l1.87,1.91c-3.35,3.44-7.81,5.57-13.25,5.57
								c-8.76,0-17.5-5.35-20.59-13h3.72h4.84v-3.44v-19.82V220.78z"/>
							<path class="st6" d="M174.54,244.2v6.96l-10.66-6.96h10.38C174.35,244.2,174.45,244.2,174.54,244.2L174.54,244.2z"/>
							<polygon class="st5" points="167.45,358.55 175.7,359.48 175.7,452.96 165.66,452.96 165.66,359.03 167.4,358.42 							"/>
							<polygon class="st2" points="165.66,359.03 165.66,452.96 115.96,452.96 115.96,376.43 							"/>
							<path class="st2" d="M132.7,255.35c1.22-2.25,3.58-3.66,6.15-3.66h12.28v3.44h-4.84h-3.72h-0.12c-1.81,0-3.12,1.72-2.64,3.46
								l18.35,66.91l-6.06,2.14l-0.09-0.26l-12.3-8l-0.87-0.57l-8.83-12.95l6.6-18.39L122.9,274l9.75-18.57
								C132.66,255.4,132.68,255.38,132.7,255.35z"/>
							<path class="st6" d="M149.25,216.51c0.01,0.03,0.01,0.07,0.01,0.11c0,0.47-0.38,0.85-0.85,0.85c-0.07,0-0.13-0.01-0.19-0.02
								C148.75,217.42,149.18,217.02,149.25,216.51z"/>
							<path class="st6" d="M148.41,215.77c0.43,0,0.79,0.32,0.84,0.74c-0.07,0.51-0.5,0.91-1.03,0.94
								c-0.38-0.09-0.66-0.43-0.66-0.83C147.56,216.15,147.94,215.77,148.41,215.77z"/>
							<path class="st3" d="M125.87,332.28l-0.03-0.15l-5.09-1.21c-0.35-0.09-0.71-0.09-1.07-0.01l-19.81,4.4
								c-0.29,0.06-0.58,0.09-0.86,0.09c-1.85,0-3.51-1.3-3.88-3.19c-0.41-2.09,0.91-4.14,2.99-4.62l14.13-3.29l-11.27,2.6
								c-0.24,0.05-0.48,0.08-0.71,0.08c-1.43,0-2.71-0.98-3.05-2.44c-0.39-1.7,0.68-3.39,2.39-3.76l18.44-4.05l-9.68-0.91
								c-1.79-0.16-3.11-1.67-3.11-3.4c0-0.17,0.01-0.34,0.04-0.51c0.27-1.84,1.96-3.13,3.81-2.9l15,1.84l1.34,0.17
								c1.14,0.14,2.23,0.53,3.19,1.16l10.2,6.63l0.87,0.57l12.3,8l0.09,0.26l-31.88,11.27l-12.98,2.54
								c-0.19,0.04-0.38,0.06-0.57,0.06c-1.39,0-2.62-1-2.88-2.42c-0.29-1.6,0.78-3.13,2.39-3.41L125.87,332.28z"/>
							<path class="st2" d="M106.67,341.51c0.19,0,0.38-0.02,0.57-0.06l12.98-2.54l31.88-11.27l6.06-2.14l19.8-7l1.09,3.26l2.3,6.9
								l6.36,19.05l1.08,3.22l-21.39,7.49l-1.74,0.61l-49.7,17.4l-7.95,2.78c-18.79,6.57-37.05-11.07-31.12-30.07l25.2-80.82
								c2.41-7.72,9.55-12.97,17.63-12.97h12.98c-0.02,0.03-0.04,0.05-0.05,0.08L122.9,274l13.71,13.47l-6.6,18.39l8.83,12.95
								l-10.2-6.63c-0.96-0.63-2.05-1.02-3.19-1.16l-1.34-0.17l-15-1.84c-1.85-0.23-3.54,1.06-3.81,2.9
								c-0.03,0.17-0.04,0.34-0.04,0.51c0,1.73,1.32,3.24,3.11,3.4l9.68,0.91l-18.44,4.05c-1.71,0.37-2.78,2.06-2.39,3.76
								c0.34,1.46,1.62,2.44,3.05,2.44c0.23,0,0.47-0.03,0.71-0.08l11.27-2.6l-14.13,3.29c-2.08,0.48-3.4,2.53-2.99,4.62
								c0.37,1.89,2.03,3.19,3.88,3.19c0.28,0,0.57-0.03,0.86-0.09l19.81-4.4c0.36-0.08,0.72-0.08,1.07,0.01l5.09,1.21l0.03,0.15
								l-19.69,3.4c-1.61,0.28-2.68,1.81-2.39,3.41C104.05,340.51,105.28,341.51,106.67,341.51z"/>
						</g>
						<g>
							<path class="st7" d="M174.47,251.69h0.07h9.31c2.9,0,5.57,1.48,7.12,3.89c0.11,0.16,0.21,0.32,0.3,0.49l10.55,19.18
								l-7.54,12.22l5.11,19.7l-2.79,6.33l-0.01,0.02"/>
							<line class="st7" x1="177.89" y1="255.13" x2="174.61" y2="255.13"/>
							<path class="st7" d="M179.05,321.76l6.41-61.56c0.27-2.61-1.69-4.89-4.27-5.06c-0.1-0.01-0.2-0.01-0.3-0.01"/>
							<line class="st7" x1="175.7" y1="452.96" x2="175.7" y2="359.48"/>
							<path class="st7" d="M151.13,251.69h-12.28c-2.57,0-4.93,1.41-6.15,3.66c-0.02,0.03-0.04,0.05-0.05,0.08L122.9,274
								l13.71,13.47l-6.6,18.39l8.83,12.95"/>
							<line class="st7" x1="165.66" y1="359.03" x2="165.66" y2="452.96"/>
							<path class="st7" d="M142.57,255.13h-0.12c-1.81,0-3.12,1.72-2.64,3.46l18.35,66.91"/>
							<line class="st7" x1="151.13" y1="255.13" x2="146.29" y2="255.13"/>
							<path class="st7" d="M146.29,255.13h-3.72c3.09,7.65,11.83,13,20.59,13c5.44,0,9.9-2.13,13.25-5.57
								c2.01-2.06,3.62-4.59,4.78-7.42l0.01-0.01h-0.31h-3"/>
							<path class="st7" d="M132.77,255.35h-0.07h-12.98c-8.08,0-15.22,5.25-17.63,12.97l-25.2,80.82
								c-5.93,19,12.33,36.64,31.12,30.07l7.95-2.78l49.7-17.4l1.74-0.61l21.39-7.49l-1.08-3.22l-6.36-19.05l-2.3-6.9l-1.09-3.26
								l-19.8,7l-6.06,2.14l-31.88,11.27l-16.63,5.88"/>
							<path class="st7" d="M191.8,255.56h10.63c6.14,0,11.6,3.91,13.59,9.72l28.31,78.81c4,11.12-5.06,22.56-16.79,21.24
								l-10.69-1.21l-41.15-4.64l-8.25-0.93"/>
							<path class="st7" d="M192.07,196.29v30.1c0,9.74-7.82,17.66-17.53,17.8c-0.09,0.01-0.19,0.01-0.28,0.01h-10.38h-1.72"/>
							<polyline class="st7" points="174.54,260.65 174.54,255.13 174.54,251.69 174.54,251.16 174.54,244.2 							"/>
							<polyline class="st7" points="151.13,220.78 151.13,231.87 151.13,251.69 151.13,255.13 151.13,260.65 							"/>
							<line class="st7" x1="174.54" y1="251.16" x2="163.88" y2="244.2"/>
							<path class="st7" d="M153.95,213.87c-0.18-1.01-0.58-1.94-1.13-2.74c-0.57-0.82-1.31-1.5-2.16-2.01
								c-1.59-0.95-3.62-0.95-5.21,0c-2.04,1.22-3.41,3.44-3.41,6c0,1.93,0.79,3.68,2.07,4.95c1.94,1.92,4.85,2.16,7.02,0.71
								c0.31-0.2,0.61-0.44,0.88-0.71"/>
							<path class="st7" d="M148.22,217.45c-0.02,0-0.03,0-0.05,0"/>
							<path class="st7" d="M146.15,213.92c0-0.86,0.69-1.56,1.55-1.56c0.87,0,1.56,0.7,1.56,1.56v2.44c0,0.05,0,0.1-0.01,0.15"/>
							<path class="st8" d="M148.22,217.45c0.06,0.01,0.12,0.02,0.19,0.02c0.47,0,0.85-0.38,0.85-0.85c0-0.04,0-0.08-0.01-0.11
								c-0.05-0.42-0.41-0.74-0.84-0.74c-0.47,0-0.85,0.38-0.85,0.85C147.56,217.02,147.84,217.36,148.22,217.45z"/>
							<path class="st7" d="M152.82,211.13c2.44,0,4.42-1.98,4.42-4.42v-10.42h34.83h2.78v-3.53c0-9.91-8.04-17.95-17.96-17.95
								h-19.13c-6.99,0-12.66,5.67-12.66,12.66h-0.36c-4.56,0-8.26,3.7-8.26,8.26v21.49c0,8.09,6.56,14.65,14.65,14.65"/>
							<line class="st7" x1="126.62" y1="303.46" x2="124.11" y2="310.85"/>
							<line class="st7" x1="204.22" y1="301.57" x2="208.51" y2="313.52"/>
							<polyline class="st7" points="115.96,376.42 115.96,376.43 115.96,452.96 165.66,452.96 175.7,452.96 216.85,452.96 
								216.85,364.12 							"/>
							<path class="st7" d="M212.75,335.72l2.78,0.35c2.92,0.37,5.27-2.36,4.46-5.2l-2.89-10.06c-0.97-3.38-3.92-5.82-7.43-6.13
								l-13.07-1.18l-2.37-0.21c-5.92-0.53-11.21,3.71-11.98,9.61l-0.73,5.7"/>
							<path class="st7" d="M214.07,330.58l-1.47,5.1l-0.13,0.43c-1.75,6.08-7.29,10.28-13.62,10.34l-8.25,0.07l-2.72,1.13"/>
							<line class="st7" x1="214.41" y1="336.06" x2="225.78" y2="337.63"/>
							<path class="st7" d="M152.01,327.38l-12.3-8l-0.87-0.57l-10.2-6.63c-0.96-0.63-2.05-1.02-3.19-1.16l-1.34-0.17l-15-1.84
								c-1.85-0.23-3.54,1.06-3.81,2.9c-0.03,0.17-0.04,0.34-0.04,0.51c0,1.73,1.32,3.24,3.11,3.4l9.68,0.91h0.02"/>
							<path class="st7" d="M135.46,320.63l-9.8-4.06c-1.55-0.65-3.26-0.8-4.89-0.44l-2.72,0.6l-18.44,4.05
								c-1.71,0.37-2.78,2.06-2.39,3.76c0.34,1.46,1.62,2.44,3.05,2.44c0.23,0,0.47-0.03,0.71-0.08l11.27-2.6"/>
							<path class="st7" d="M133.94,326.26l-10.73-3.35c-1.39-0.43-2.87-0.48-4.29-0.16l-6.67,1.55l-14.13,3.29
								c-2.08,0.48-3.4,2.53-2.99,4.62c0.37,1.89,2.03,3.19,3.88,3.19c0.28,0,0.57-0.03,0.86-0.09l19.81-4.4
								c0.36-0.08,0.72-0.08,1.07,0.01l5.09,1.21"/>
							<path class="st7" d="M132.51,331.13l-6.64,1.15l-19.69,3.4c-1.61,0.28-2.68,1.81-2.39,3.41c0.26,1.42,1.49,2.42,2.88,2.42
								c0.19,0,0.38-0.02,0.57-0.06l12.98-2.54"/>
							<path class="st7" d="M171.95,230.72c-4.98,0-9.01-4.03-9.01-9.01"/>
						</g>
					</g>
				</g>
				<g style="clip-path:url(#SVGID_00000155117497825420624730000014214932116433484418_);">
					<g>
						<g id="XMLID_00000067219341730707995370000017685133121146658444_">
							<g>
								<path class="st9" d="M500.3,258.58l15.63-7.95c7.39,25.07,10.03,45.34,5.81,46.69c-0.5,0.16-1.09,0.04-1.73-0.33l-0.01-0.01
									C515.42,294.34,507.56,279,500.3,258.58z"/>
								<path class="st6" d="M516.04,250.57c-2.17,0.7-4.91-1.81-6.12-5.6c-1.21-3.79-0.44-7.42,1.73-8.12
									c2.17-0.69,4.91,1.82,6.12,5.61C518.98,246.24,518.21,249.88,516.04,250.57z"/>
								<path class="st10" d="M511.54,236.87l0.11-0.02c-2.17,0.7-2.94,4.33-1.73,8.12c1.21,3.79,3.95,6.3,6.12,5.6l-0.11,0.06
									l-15.63,7.95c-1.12-3.16-2.23-6.44-3.31-9.81c-1.01-3.16-1.95-6.27-2.82-9.3L511.54,236.87z"/>
								<path class="st9" d="M488.96,194.87c4.25-1.36,13.99,16.98,22.58,42l-17.37,2.6c-6.07-21.09-8.65-38.43-6.45-43.3
									C488.04,195.47,488.45,195.03,488.96,194.87z"/>
								<path class="st11" d="M463.47,244.89l24.23-48.73l0.02,0.01c-2.2,4.87,0.38,22.21,6.45,43.3c0.87,3.03,1.81,6.14,2.82,9.3
									c1.08,3.37,2.19,6.65,3.31,9.81c7.26,20.42,15.12,35.76,19.7,38.4l-45.26-23.99l-3.88-2.05l0.02-0.01
									c-3.25-1.75-6.37-5.86-8.07-11.15c-1.68-5.26-1.54-10.38,0.06-13.69l-0.01-0.03l0.03-0.01L463.47,244.89z"/>
								<path class="st3" d="M443.25,292.83l19.2-6.3l1.45-0.48c2.99-0.98,6.2,0.65,7.16,3.64c0.19,0.58,0.27,1.16,0.27,1.73
									c0,2.34-1.46,4.52-3.78,5.34l-3.87,1.37l2.6-0.89c0.6-0.2,1.2-0.3,1.8-0.3c2.34,0,4.52,1.5,5.26,3.86
									c0.87,2.79-0.58,5.78-3.31,6.82l-1.5,0.58c2.62-0.7,5.4,0.78,6.24,3.43c0.16,0.52,0.24,1.04,0.24,1.56
									c0,2.08-1.25,4.02-3.28,4.81l-0.86,0.32l0.01,0.02c0.42-0.16,0.84-0.24,1.26-0.24c1.48,0,2.86,0.95,3.33,2.44
									c0.55,1.73-0.32,3.6-2.01,4.28l-8.95,3.63l-39.82-14.07l0.15-0.42l2.63-16.15c0.6-3.66,3.28-6.63,6.86-7.59l5.24-1.41
									l2.21-0.59l1.41,4.41L443.25,292.83z"/>
								<path class="st10" d="M467.93,271.99l3.6,11.23c-5.05,1.62-10.45-1.14-12.12-6.16c-0.01-0.03-0.02-0.06-0.03-0.09
									l-0.65-2.04L467.93,271.99z"/>
								<path class="st2" d="M467.1,364.88v88.25h-62.83V346.72l-0.01-0.07l6.61-0.99l51.67,18.08
									C464.07,364.28,465.59,364.65,467.1,364.88L467.1,364.88z"/>
								<path class="st12" d="M462.87,246.09c-1.6,3.31-1.74,8.43-0.06,13.69c1.7,5.29,4.82,9.4,8.07,11.15l-0.02,0.01l-33.83,10.83
									l-12.53,4.01c-1.76-0.95-3.47-2.57-4.94-4.7c-1.26-1.82-2.35-4.01-3.13-6.46c-1.68-5.26-1.54-10.37,0.06-13.69l0.04-0.04
									l9.39-3.01l18.04-5.77l18.9-6.05L462.87,246.09z"/>
								<path class="st2" d="M462.86,246.06l-18.9,6.05l-6.37-12.13l0.19-0.1h13.05c4.81,0,9.29,1.87,12.64,5.01l-0.58,1.16
									L462.86,246.06z"/>
								<path class="st6" d="M462.41,286.4l0.04,0.13l-19.2,6.3l-0.06-0.2l-1.41-4.41l-2.28-7.13l19.23-6.16l0.65,2.04
									c0.01,0.03,0.02,0.06,0.03,0.09L462.41,286.4z"/>
								<path class="st2" d="M437.59,239.98l6.37,12.13l-18.04,5.77l4.2-15.33c0.48-1.75-0.83-3.47-2.64-3.47h-1.12h-3.7h-3.04
									v-3.44h11.46c2.61,0,4.99,1.45,6.2,3.75L437.59,239.98z"/>
								<path class="st2" d="M437.03,281.77l2.54,7.04l-5.24,1.41c-3.58,0.96-6.26,3.93-6.86,7.59l-2.63,16.15l-0.15,0.42l-13-4.59
									l7.87-28.71c1.47,2.13,3.18,3.75,4.94,4.7L437.03,281.77z"/>
								<path class="st2" d="M437.03,281.77l33.83-10.83l3.88,2.05l19.11,60.68c5.44,17.46-9.68,33.77-26.75,31.2
									c-1.51-0.22-3.03-0.59-4.56-1.13l-51.67-18.08l-29.12-10.19l0.82-2.45l6.59-19.73l1.92-5.74l1.51-4.51l19.1,6.75l13,4.59
									l39.82,14.07l8.95-3.63c1.69-0.68,2.56-2.55,2.01-4.28c-0.47-1.49-1.85-2.44-3.33-2.44c-0.42,0-0.84,0.08-1.26,0.24
									l-0.01-0.02l0.86-0.32c2.03-0.79,3.28-2.73,3.28-4.81c0-0.52-0.08-1.04-0.24-1.56c-0.84-2.65-3.62-4.13-6.24-3.43l1.5-0.58
									c2.73-1.04,4.18-4.03,3.31-6.82c-0.74-2.36-2.92-3.86-5.26-3.86c-0.6,0-1.2,0.1-1.8,0.3l-2.6,0.89l3.87-1.37
									c2.32-0.82,3.78-3,3.78-5.34c0-0.57-0.08-1.15-0.27-1.73c-0.96-2.99-4.17-4.62-7.16-3.64l-1.45,0.48l-0.04-0.13l-3-9.34
									c1.67,5.02,7.07,7.78,12.12,6.16l-3.6-11.23l-9.2,2.94l-19.23,6.16l2.28,7.13l-2.21,0.59L437.03,281.77z"/>
								<path class="st4" d="M428.23,198.44v7.29c0,4.76-3.86,8.61-8.61,8.61v-9.72c2.13,1.03,4.71,0.66,6.49-1.11
									C427.42,202.21,428.23,200.42,428.23,198.44z"/>
								<path class="st4" d="M428.23,172.7v25.74c0-2.61-1.4-4.89-3.49-6.13c-1.62-0.98-3.71-0.98-5.33,0
									c-0.87,0.52-1.63,1.22-2.21,2.05c-3.24,0-5.86-2.62-5.86-5.87v-13.68h-30.07c-1.2,0-2.35-0.21-3.42-0.6
									c-1.37-0.5-2.6-1.3-3.61-2.31c-1.8-1.8-2.91-4.28-2.91-7.03c0-5.49,4.45-9.94,9.94-9.94h27.86c2.34,0,4.46,0.95,5.99,2.49
									c1.54,1.53,2.49,3.66,2.49,6h1.34C424.07,163.42,428.23,167.57,428.23,172.7z"/>
								<path class="st3" d="M417.2,194.36c0.58-0.83,1.34-1.53,2.21-2.05c1.62-0.98,3.71-0.98,5.33,0
									c2.09,1.24,3.49,3.52,3.49,6.13c0,1.98-0.81,3.77-2.12,5.07c-1.78,1.77-4.36,2.14-6.49,1.11v9.72v21.3v3.44h3.04h3.7
									c-3.07,7.62-10.37,12.96-20.51,12.96c-8.19,0-14.16-4.84-17.43-11.73c-0.27-0.57,0.13-1.23,0.76-1.23h2h4.42h0.07v-3.44
									v-2.8l10.9-7.12h-10.61c-0.1,0-0.19,0-0.29-0.01c-9.93-0.15-17.93-8.24-17.93-18.2v-32.94l0.11-0.36
									c1.07,0.39,2.22,0.6,3.42,0.6h30.07v13.68C411.34,191.74,413.96,194.36,417.2,194.36z M420.59,200.16
									c-0.01,0.03-0.01,0.07-0.01,0.11c0,0.47,0.38,0.85,0.85,0.85c0.07,0,0.13-0.01,0.19-0.02c0.38-0.09,0.66-0.43,0.66-0.83
									c0-0.47-0.38-0.85-0.85-0.85C421,199.42,420.64,199.74,420.59,200.16z M410.38,207.89v-2.7h-16.55v2.7
									c0,0.58,0.06,1.14,0.17,1.68c0.78,3.76,4.11,6.59,8.11,6.59s7.33-2.83,8.1-6.59C410.32,209.03,410.38,208.47,410.38,207.89z
									"/>
								<path class="st6" d="M422.28,200.27c0,0.4-0.28,0.74-0.66,0.83c-0.53-0.03-0.96-0.42-1.03-0.94
									c0.05-0.42,0.41-0.74,0.84-0.74C421.9,199.42,422.28,199.8,422.28,200.27z"/>
								<path class="st6" d="M421.62,201.1c-0.06,0.01-0.12,0.02-0.19,0.02c-0.47,0-0.85-0.38-0.85-0.85c0-0.04,0-0.08,0.01-0.11
									C420.66,200.68,421.09,201.07,421.62,201.1z"/>
								<path class="st9" d="M410.38,205.19v2.7c0,0.58-0.06,1.14-0.17,1.68H394c-0.11-0.54-0.17-1.1-0.17-1.68v-2.7H410.38z"/>
								<path class="st10" d="M394,209.57h16.21c-0.77,3.76-4.1,6.59-8.1,6.59S394.78,213.33,394,209.57z"/>
								<polygon class="st5" points="404.27,346.72 404.27,453.13 394.23,453.13 394.23,348.24 394.22,348.14 404.26,346.65 
																	"/>
								<path class="st6" d="M395.67,225.72L395.67,225.72c0.1,0,0.19,0,0.29,0h10.61l-10.9,7.12V225.72z"/>
								<polygon class="st2" points="394.23,348.24 394.23,453.13 352.82,453.13 352.82,354.36 352.81,354.32 394.22,348.14 
																	"/>
								<path class="st2" d="M384.47,244.16l6.61,63.39l-1.92,5.74l-0.75-5.83c-0.79-6.09-6.25-10.47-12.37-9.92l-2.56,0.23
									l-2.94-6.65l5.12-19.7l-7.55-12.21l10.44-18.96l0.12-0.22c1.48-2.71,4.33-4.39,7.42-4.39h9.3h0.28v3.44h-0.07h-4.42h-2
									h-0.13C386.32,239.08,384.19,241.44,384.47,244.16z"/>
								<path class="st5" d="M384.47,244.16c-0.28-2.72,1.85-5.08,4.58-5.08h0.13c-0.63,0-1.03,0.66-0.76,1.23
									c3.27,6.89,9.24,11.73,17.43,11.73c10.14,0,17.44-5.34,20.51-12.96h1.12c1.81,0,3.12,1.72,2.64,3.47l-4.2,15.33l-9.39,3.01
									l-0.04,0.04c-1.6,3.32-1.74,8.43-0.06,13.69c0.78,2.45,1.87,4.64,3.13,6.46l-7.87,28.71l-19.1-6.75l-1.51,4.51
									L384.47,244.16z"/>
								<path class="st3" d="M357.07,320.65l-0.16,0.05l-2.96,0.38c-2.97,0.31-5.34-2.49-4.51-5.38l2.98-10.4
									c1-3.49,4.05-6.01,7.67-6.33l13.39-1.2l2.56-0.23c6.12-0.55,11.58,3.83,12.37,9.92l0.75,5.83l-6.59,19.73l-2.78-1.17
									l-8.53-0.07c-6.53-0.06-12.25-4.4-14.06-10.67L357.07,320.65z"/>
								<path class="st2" d="M353.95,321.08l2.96-0.38l0.16-0.05l0.13,0.46c1.81,6.27,7.53,10.61,14.06,10.67l8.53,0.07l2.78,1.17
									l-0.82,2.45l29.12,10.19l-6.61,0.99l-10.04,1.49l-41.41,6.18l-10.01,1.49c-12.82,1.92-23.04-10.54-18.66-22.73l29.91-83.27
									c1.99-5.81,7.45-9.71,13.6-9.71h10.62l0.28,0.15l-10.44,18.96l7.55,12.21l-5.12,19.7l2.94,6.65l-13.39,1.2
									c-3.62,0.32-6.67,2.84-7.67,6.33l-2.98,10.4C348.61,318.59,350.98,321.39,353.95,321.08z"/>
							</g>
							<g>
								<path class="st7" d="M395.39,235.64h-9.3c-3.09,0-5.94,1.68-7.42,4.39l-0.12,0.22l-10.44,18.96l7.55,12.21l-5.12,19.7
									l2.94,6.65"/>
								<line class="st7" x1="391.18" y1="239.08" x2="395.6" y2="239.08"/>
								<path class="st7" d="M391.08,307.55l-6.61-63.39c-0.28-2.72,1.85-5.08,4.58-5.08h0.13"/>
								<line class="st7" x1="394.23" y1="453.13" x2="394.23" y2="348.24"/>
								<polyline class="st7" points="437.03,281.76 437.03,281.77 439.57,288.81 								"/>
								<path class="st7" d="M419.62,235.64h11.46c2.61,0,4.99,1.45,6.2,3.75l0.31,0.59l6.37,12.13"/>
								<line class="st7" x1="404.27" y1="346.72" x2="404.27" y2="453.13"/>
								<line class="st7" x1="419.56" y1="281.08" x2="411.69" y2="309.79"/>
								<path class="st7" d="M426.36,239.08h1.12c1.81,0,3.12,1.72,2.64,3.47l-4.2,15.33"/>
								<line class="st7" x1="419.62" y1="239.08" x2="422.66" y2="239.08"/>
								<path class="st7" d="M422.66,239.08h3.7c-3.07,7.62-10.37,12.96-20.51,12.96c-8.19,0-14.16-4.84-17.43-11.73
									c-0.27-0.57,0.13-1.23,0.76-1.23h2"/>
								<path class="st7" d="M377.74,174.57v32.94c0,9.96,8,18.05,17.93,18.2c0.1,0.01,0.19,0.01,0.29,0.01h10.61h1.76"/>
								<polyline class="st7" points="395.67,244.36 395.67,239.08 395.67,235.64 395.67,232.84 395.67,225.72 								"/>
								<polyline class="st7" points="419.62,204.62 419.62,214.34 419.62,235.64 419.62,239.08 419.62,243.6 								"/>
								<line class="st7" x1="395.67" y1="232.84" x2="406.57" y2="225.72"/>
								<path class="st7" d="M416.04,197.17c0.18-1.03,0.59-1.98,1.16-2.81c0.58-0.83,1.34-1.53,2.21-2.05
									c1.62-0.98,3.71-0.98,5.33,0c2.09,1.24,3.49,3.52,3.49,6.13c0,1.98-0.81,3.77-2.12,5.07c-1.78,1.77-4.36,2.14-6.49,1.11
									c-0.57-0.27-1.11-0.64-1.59-1.12"/>
								<path class="st7" d="M421.62,201.1c0.02,0,0.03,0,0.05,0"/>
								<path class="st7" d="M423.69,197.58c0-0.86-0.7-1.56-1.56-1.56c-0.86,0-1.55,0.7-1.55,1.56v2.43c0,0.05,0,0.1,0.01,0.15"/>
								<path class="st8" d="M421.62,201.1c-0.06,0.01-0.12,0.02-0.19,0.02c-0.47,0-0.85-0.38-0.85-0.85c0-0.04,0-0.08,0.01-0.11
									c0.05-0.42,0.41-0.74,0.84-0.74c0.47,0,0.85,0.38,0.85,0.85C422.28,200.67,422,201.01,421.62,201.1z"/>
								<path class="st7" d="M419.62,214.34c4.75,0,8.61-3.85,8.61-8.61v-7.29V172.7c0-5.13-4.16-9.28-9.28-9.28h-1.34
									c0-2.34-0.95-4.47-2.49-6c-1.53-1.54-3.65-2.49-5.99-2.49h-27.86c-5.49,0-9.94,4.45-9.94,9.94c0,2.75,1.11,5.23,2.91,7.03
									c1.01,1.01,2.24,1.81,3.61,2.31c1.07,0.39,2.22,0.6,3.42,0.6h30.07v13.68c0,3.25,2.62,5.87,5.86,5.87"/>
								<path class="st7" d="M474.74,272.99l19.11,60.68c5.44,17.46-9.68,33.77-26.75,31.2c-1.51-0.22-3.03-0.59-4.56-1.13
									l-51.67-18.08l-29.12-10.19l0.82-2.45l6.59-19.73l1.92-5.74l1.51-4.51l19.1,6.75l13,4.59l39.82,14.07l2.45,0.87"/>
								<path class="st7" d="M437.78,239.88h13.05c4.81,0,9.29,1.87,12.64,5.01"/>
								<path class="st7" d="M378.27,240.1h-10.62c-6.15,0-11.61,3.9-13.6,9.71l-29.91,83.27c-4.38,12.19,5.84,24.65,18.66,22.73
									l10.01-1.49l41.41-6.18l10.04-1.49l6.61-0.99"/>
								<polyline class="st7" points="352.82,354.36 352.82,453.13 394.23,453.13 404.27,453.13 467.1,453.13 467.1,364.88 								
									"/>
								<path class="st7" d="M353.95,321.08c-2.97,0.31-5.34-2.49-4.51-5.38l2.98-10.4c1-3.49,4.05-6.01,7.67-6.33l13.39-1.2
									l2.56-0.23c6.12-0.55,11.58,3.83,12.37,9.92l0.75,5.83l0.01,0.06"/>
								<path class="st7" d="M355.55,315.4l1.52,5.25l0.13,0.46c1.81,6.27,7.53,10.61,14.06,10.67l8.53,0.07l2.78,1.17l0.03,0.01"/>
								<polyline class="st7" points="344.8,322.24 353.95,321.08 356.91,320.7 								"/>
								<path class="st7" d="M424.84,313.96l2.63-16.15c0.6-3.66,3.28-6.63,6.86-7.59l5.24-1.41l2.21-0.59"/>
								<line class="st7" x1="463.64" y1="298.14" x2="456.73" y2="300.58"/>
								<path class="st7" d="M439.35,294.11l3.9-1.28l19.2-6.3l1.45-0.48c2.99-0.98,6.2,0.65,7.16,3.64
									c0.19,0.58,0.27,1.16,0.27,1.73c0,2.34-1.46,4.52-3.78,5.34l-3.87,1.37"/>
								<path class="st7" d="M460.85,311.19l7.68-2.99l1.5-0.58c2.73-1.04,4.18-4.03,3.31-6.82c-0.74-2.36-2.92-3.86-5.26-3.86
									c-0.6,0-1.2,0.1-1.8,0.3l-2.6,0.89l-0.04,0.01"/>
								<path class="st7" d="M466.16,309.07l1.84-0.7c0.18-0.07,0.35-0.12,0.53-0.17c2.62-0.7,5.4,0.78,6.24,3.43
									c0.16,0.52,0.24,1.04,0.24,1.56c0,2.08-1.25,4.02-3.28,4.81l-0.86,0.32l-5.77,2.17"/>
								<line class="st7" x1="459.41" y1="277.06" x2="462.41" y2="286.4"/>
								<polyline class="st7" points="443.19,292.63 441.78,288.22 439.5,281.09 458.73,274.93 								"/>
								<path class="st7" d="M458.73,274.93l9.2-2.94l3.6,11.23c-5.05,1.62-10.45-1.14-12.12-6.16c-0.01-0.03-0.02-0.06-0.03-0.09
									L458.73,274.93z"/>
								<path class="st7" d="M470.88,270.93c-3.25-1.75-6.37-5.86-8.07-11.15c-1.68-5.26-1.54-10.38,0.06-13.69"/>
								<path class="st7" d="M416.49,260.93c-1.6,3.32-1.74,8.43-0.06,13.69c0.78,2.45,1.87,4.64,3.13,6.46
									c1.47,2.13,3.18,3.75,4.94,4.7"/>
								<polyline class="st7" points="462.86,246.06 443.96,252.11 425.92,257.88 416.53,260.89 								"/>
								<polyline class="st7" points="424.5,285.78 437.03,281.77 470.86,270.94 470.88,270.93 								"/>
								<polyline class="st7" points="470.85,270.93 470.86,270.94 474.74,272.99 520,296.98 								"/>
								<polyline class="st7" points="487.87,195.83 487.7,196.16 463.47,244.89 462.89,246.05 								"/>
								<path class="st7" d="M515.93,250.63c7.39,25.07,10.03,45.34,5.81,46.69c-0.5,0.16-1.09,0.04-1.73-0.33l-0.01-0.01
									c-4.58-2.64-12.44-17.98-19.7-38.4c-1.12-3.16-2.23-6.44-3.31-9.81c-1.01-3.16-1.95-6.27-2.82-9.3
									c-6.07-21.09-8.65-38.43-6.45-43.3c0.32-0.7,0.73-1.14,1.24-1.3c4.25-1.36,13.99,16.98,22.58,42"/>
								<polyline class="st7" points="511.65,236.85 511.54,236.87 494.17,239.47 								"/>
								<polyline class="st7" points="500.3,258.58 515.93,250.63 516.04,250.57 								"/>
								<path class="st7" d="M464.51,328.45l8.95-3.63c1.69-0.68,2.56-2.55,2.01-4.28c-0.47-1.49-1.85-2.44-3.33-2.44
									c-0.42,0-0.84,0.08-1.26,0.24l-3.19,1.24"/>
								<path class="st7" d="M410.21,209.57c-0.77,3.76-4.1,6.59-8.1,6.59s-7.33-2.83-8.11-6.59c-0.11-0.54-0.17-1.1-0.17-1.68v-2.7
									h16.55v2.7C410.38,208.47,410.32,209.03,410.21,209.57z"/>
								<line class="st7" x1="394" y1="209.57" x2="410.21" y2="209.57"/>
							</g>
						</g>
					</g>
				</g>
				<g style="clip-path:url(#SVGID_00000155117497825420624730000014214932116433484418_);">
					<g id="XMLID_00000118378433341185150740000011374883740135473581_">
						<g>
							<path class="st2" d="M312.14,325.83l9.75,18.57l-13.71,13.47l6.61,18.39l-26.15,38.34v0.01l-5.76-5.02l22.11-80.6
								c0.47-1.74-0.84-3.46-2.65-3.46h-0.12h-3.72h-4.57v-3.44h12.02c2.55,0,4.89,1.38,6.12,3.61
								C312.09,325.74,312.12,325.79,312.14,325.83z"/>
							<path class="st2" d="M312.37,325.53h12.99c8.32,0,15.87,4.84,19.34,12.4l41.82,91.17c4.36,9.46-2.55,20.25-12.96,20.25
								h-60.35h-7.28v-19.68l-17.29-15.06v-0.01l26.15-38.34l-6.61-18.39l13.71-13.47l-9.75-18.57c-0.02-0.04-0.05-0.09-0.07-0.13
								L312.37,325.53z M337.37,405.03l-0.03,0.01v14.11h6.49v-0.13L337.37,405.03z"/>
							<path class="st4" d="M309.4,309.92v4.84h-6.85c-4.76,0-8.62-3.86-8.62-8.62v-3.25c1.92,0,3.71-0.59,5.19-1.59h1.66
								C305.54,301.3,309.4,305.16,309.4,309.92z"/>
							<path class="st3" d="M305.93,429.67v19.68h-5.79c-4.48,0-8.68-2.19-11.24-5.87l-18.45-25.35c-0.2-0.28-0.47-0.49-0.76-0.61
								c-0.12-0.07-0.25-0.11-0.38-0.14c-0.45-0.12-0.94-0.08-1.38,0.15l-16.62,8.66c-1.8,0.62-3.83-0.16-4.74-1.9
								c-0.3-0.58-0.44-1.2-0.44-1.81c0-1.4,0.74-2.75,2.05-3.46l12.53-6.77l6.75-3.65l4.07-2.2c2.86-1.54,6.37-1.15,8.81,0.98
								l2.54,2.21l5.76,5.02L305.93,429.67z"/>
							<path class="st4" d="M303.19,285.57v8.06c0,3.19-1.62,6-4.07,7.67c-1.48,1-3.27,1.59-5.19,1.59V291.7l0.04-0.38
								c2.21,1.47,5.16,1.22,7.13-0.73C302.39,289.31,303.19,287.53,303.19,285.57z"/>
							<path class="st6" d="M297.34,287.44c0,0.4-0.28,0.74-0.66,0.83c-0.54-0.03-0.96-0.43-1.03-0.94
								c0.05-0.42,0.41-0.74,0.84-0.74C296.96,286.59,297.34,286.97,297.34,287.44z"/>
							<path class="st6" d="M296.68,288.27c-0.06,0.01-0.12,0.02-0.19,0.02c-0.47,0-0.85-0.38-0.85-0.85c0-0.04,0-0.08,0.01-0.11
								C295.72,287.84,296.14,288.24,296.68,288.27z"/>
							<path class="st3" d="M296.68,288.27c0.38-0.09,0.66-0.43,0.66-0.83c0-0.47-0.38-0.85-0.85-0.85c-0.43,0-0.79,0.32-0.84,0.74
								c-0.01,0.03-0.01,0.07-0.01,0.11c0,0.47,0.38,0.85,0.85,0.85C296.56,288.29,296.62,288.28,296.68,288.27z M281.56,338.57
								c-8.31,0-14.35-4.94-17.62-11.95c-0.24-0.51,0.15-1.09,0.71-1.09h2.13h3.31h0.07v-3.44v-3.31l10.82-7.07h-10.54
								c-0.09,0-0.19,0-0.28-0.01c-7.13-0.1-13.25-4.33-16.1-10.4c-1.09-2.33-1.7-4.93-1.7-7.67v-31.74c0-3.13,2.54-5.67,5.67-5.67
								h15.99c3.13,0,5.67,2.54,5.67,5.67v0.2c0-1.25,1.01-2.27,2.26-2.27h2.96c1.25,0,2.26,1.02,2.26,2.27h0.02v5.7
								c0,2.39,1.69,4.37,3.94,4.84l-0.03,0.1v11.57c0.37-2.05,1.61-3.79,3.34-4.82c1.61-0.97,3.68-0.97,5.29,0
								c2.08,1.23,3.46,3.5,3.46,6.09c0,1.96-0.8,3.74-2.09,5.02c-1.97,1.95-4.92,2.2-7.13,0.73l-0.04,0.38v11.19v3.25v15.95v3.44
								h4.57h3.72C299.12,333.2,290.35,338.57,281.56,338.57z"/>
							<path class="st4" d="M287.17,262.09c0-1.25-1.01-2.27-2.26-2.27h-2.96c-1.25,0-2.26,1.02-2.26,2.27v-0.2v-0.56v-0.9
								c0-1.63,1.32-2.95,2.95-2.95h1.53c1.67,0,3.02,1.35,3.02,3.01v1.6H287.17z"/>
							<path class="st4" d="M258.19,250.41c-5.73,0-10.38,4.65-10.38,10.38v-3.16c0-8.58,6.95-15.53,15.53-15.53h15.45
								c4.99,0,9.13,3.58,10.01,8.31h1.03c7.38,0,13.36,5.98,13.36,13.36v21.8c0-2.59-1.38-4.86-3.46-6.09
								c-1.61-0.97-3.68-0.97-5.29,0c-1.73,1.03-2.97,2.77-3.34,4.82v-11.57l0.03-0.1c-2.25-0.47-3.94-2.45-3.94-4.84v-5.7v-1.6
								c0-1.66-1.35-3.01-3.02-3.01h-1.53c-1.63,0-2.95,1.32-2.95,2.95v-2.22c0-4.31-3.49-7.8-7.8-7.8H258.19z"/>
							<path class="st4" d="M252.36,261.89v31.74c0,2.74,0.61,5.34,1.7,7.67c-3.45,0-6.25-2.8-6.25-6.25v-31.17v-3.09
								c0-5.73,4.65-10.38,10.38-10.38h13.7c4.31,0,7.8,3.49,7.8,7.8v2.22v0.9v0.56c0-3.13-2.54-5.67-5.67-5.67h-15.99
								C254.9,256.22,252.36,258.76,252.36,261.89z"/>
							<path class="st6" d="M270.44,311.71h10.54l-10.82,7.07v-7.07v-0.01C270.25,311.71,270.35,311.71,270.44,311.71z"/>
							<path class="st2" d="M270.33,449.35h-0.19h-19.67c3.72,0,7.33-1.27,10.24-3.59l6.32-5.05
								C263.66,443.68,265.74,449.35,270.33,449.35z"/>
							<path class="st2" d="M270.16,322.09v3.44h-0.07h-3.31h-2.13h-0.74c-2.73,0-4.86,2.36-4.57,5.07l8.12,78l-6.75,3.65
								l-15.3-34.68l5.11-19.7l-7.55-12.22l10.56-19.18c0.11-0.21,0.24-0.41,0.38-0.61c1.55-2.34,4.19-3.77,7.04-3.77h8.28H270.16z"
								/>
							<path class="st2" d="M288.9,443.48c2.56,3.68,6.76,5.87,11.24,5.87H281.5c4.84,0,7.63-5.49,4.78-9.4l-15.9-21.84
								c-0.19-0.26-0.43-0.46-0.69-0.59c0.29,0.12,0.56,0.33,0.76,0.61L288.9,443.48z"/>
							<path class="st3" d="M267.03,440.71l-6.32,5.05c-2.91,2.32-6.52,3.59-10.24,3.59h-5.93v-19.63l6.77-3.53
								c0.19-0.06,0.37-0.14,0.55-0.23l16.12-8.41c0.42-0.22,0.89-0.27,1.33-0.17c0.13,0.03,0.26,0.07,0.38,0.14
								c0.26,0.13,0.5,0.33,0.69,0.59l15.9,21.84c2.85,3.91,0.06,9.4-4.78,9.4h-1.83h-9.34
								C265.74,449.35,263.66,443.68,267.03,440.71z"/>
							<path class="st5" d="M263.94,326.62c3.27,7.01,9.31,11.95,17.62,11.95c8.79,0,17.56-5.37,20.66-13.04h0.12
								c1.81,0,3.12,1.72,2.65,3.46l-22.11,80.6l-2.54-2.21c-2.44-2.13-5.95-2.52-8.81-0.98l-4.07,2.2l-8.12-78
								c-0.29-2.71,1.84-5.07,4.57-5.07h0.74C264.09,325.53,263.7,326.11,263.94,326.62z"/>
							<path class="st2" d="M237.13,419.15v-0.13v-20l-9.23,20v0.13H237.13z M253.53,326.47l-10.56,19.18l7.55,12.22l-5.11,19.7
								l15.3,34.68l-12.53,6.77c-1.31,0.71-2.05,2.06-2.05,3.46c0,0.61,0.14,1.23,0.44,1.81c0.91,1.74,2.94,2.52,4.74,1.9
								l-6.77,3.53v19.63h-6.4h-39.97c-10.42,0-17.33-10.79-12.96-20.25l42.1-91.32c3.38-7.34,10.72-12.03,18.79-12.03h7.65
								l0.16,0.11C253.77,326.06,253.64,326.26,253.53,326.47z"/>
						</g>
						<g>
							<path class="st7" d="M269.23,322.09h-8.28c-2.85,0-5.49,1.43-7.04,3.77c-0.14,0.2-0.27,0.4-0.38,0.61l-10.56,19.18
								l7.55,12.22l-5.11,19.7l15.3,34.68"/>
							<line class="st7" x1="266.78" y1="325.53" x2="270.09" y2="325.53"/>
							<path class="st7" d="M267.46,408.6l-8.12-78c-0.29-2.71,1.84-5.07,4.57-5.07h0.74"/>
							<path class="st7" d="M293.93,322.09h12.02c2.55,0,4.89,1.38,6.12,3.61c0.02,0.04,0.05,0.09,0.07,0.13l9.75,18.57
								l-13.71,13.47l6.61,18.39l-26.15,38.34"/>
							<path class="st7" d="M302.22,325.53h0.12c1.81,0,3.12,1.72,2.65,3.46l-22.11,80.6"/>
							<line class="st7" x1="293.93" y1="325.53" x2="298.5" y2="325.53"/>
							<path class="st7" d="M298.5,325.53h3.72c-3.1,7.67-11.87,13.04-20.66,13.04c-8.31,0-14.35-4.94-17.62-11.95
								c-0.24-0.51,0.15-1.09,0.71-1.09h2.13"/>
							<path class="st7" d="M252.36,261.17v0.72v31.74c0,2.74,0.61,5.34,1.7,7.67c2.85,6.07,8.97,10.3,16.1,10.4
								c0.09,0.01,0.19,0.01,0.28,0.01h10.54h1.75"/>
							<polyline class="st7" points="270.16,330.23 270.16,325.53 270.16,322.09 270.16,318.78 270.16,311.71 							"/>
							<polyline class="st7" points="293.93,291.7 293.93,302.89 293.93,306.14 293.93,322.09 293.93,325.53 293.93,329.48 							
								"/>
							<line class="st7" x1="270.16" y1="318.78" x2="280.98" y2="311.71"/>
							<path class="st7" d="M291.1,284.3c0.37-2.05,1.61-3.79,3.34-4.82c1.61-0.97,3.68-0.97,5.29,0c2.08,1.23,3.46,3.5,3.46,6.09
								c0,1.96-0.8,3.74-2.09,5.02c-1.97,1.95-4.92,2.2-7.13,0.73c-0.32-0.21-0.62-0.45-0.9-0.73"/>
							<path class="st7" d="M296.68,288.27c0.02,0,0.03,0,0.05,0"/>
							<path class="st7" d="M298.75,284.74c0-0.86-0.7-1.56-1.56-1.56c-0.86,0-1.55,0.7-1.55,1.56v2.44c0,0.05,0,0.1,0.01,0.15"/>
							<path class="st8" d="M296.68,288.27c-0.06,0.01-0.12,0.02-0.19,0.02c-0.47,0-0.85-0.38-0.85-0.85c0-0.04,0-0.08,0.01-0.11
								c0.05-0.42,0.41-0.74,0.84-0.74c0.47,0,0.85,0.38,0.85,0.85C297.34,287.84,297.06,288.18,296.68,288.27z"/>
							<path class="st7" d="M279.69,261.89c0-3.13-2.54-5.67-5.67-5.67h-15.99c-3.13,0-5.67,2.54-5.67,5.67"/>
							<path class="st7" d="M279.69,260.43c0-1.63,1.32-2.95,2.95-2.95h1.53c1.67,0,3.02,1.35,3.02,3.01v1.6v5.7
								c0,2.39,1.69,4.37,3.94,4.84c0.32,0.06,0.66,0.1,1,0.1h3.61"/>
							<polyline class="st7" points="279.69,262.42 279.69,262.09 279.69,261.89 279.69,261.33 							"/>
							<line class="st7" x1="291.1" y1="284.3" x2="291.1" y2="272.73"/>
							<path class="st7" d="M279.69,262.09c0-1.25,1.01-2.27,2.26-2.27h2.96c1.25,0,2.26,1.02,2.26,2.27v0.33"/>
							<path class="st7" d="M247.81,263.88v31.17c0,3.45,2.8,6.25,6.25,6.25"/>
							<path class="st7" d="M288.98,252.29c0-0.64-0.06-1.27-0.18-1.88c-0.88-4.73-5.02-8.31-10.01-8.31h-15.45
								c-8.58,0-15.53,6.95-15.53,15.53v3.16"/>
							<path class="st7" d="M288.8,250.41h1.03c7.38,0,13.36,5.98,13.36,13.36v21.8v8.06c0,3.19-1.62,6-4.07,7.67
								c-1.48,1-3.27,1.59-5.19,1.59"/>
							<path class="st7" d="M247.81,263.88v-3.09c0-5.73,4.65-10.38,10.38-10.38h13.7c4.31,0,7.8,3.49,7.8,7.8v2.22v0.9"/>
							<path class="st7" d="M293.93,306.14c0,4.76,3.86,8.62,8.62,8.62h6.85v-4.84c0-4.76-3.86-8.62-8.62-8.62h-1.66"/>
							<polyline class="st7" points="305.93,449.35 305.93,429.67 305.93,419.15 337.34,419.15 343.83,419.15 358.65,419.15 							
								"/>
							<path class="st7" d="M312.37,325.53h12.99c8.32,0,15.87,4.84,19.34,12.4l41.82,91.17c4.36,9.46-2.55,20.25-12.96,20.25
								h-60.35"/>
							<polyline class="st7" points="324.38,376.88 337.37,405.03 343.83,419.02 							"/>
							<line class="st7" x1="337.34" y1="405.04" x2="337.34" y2="419.15"/>
							<polyline class="st7" points="244.54,449.35 244.54,429.72 244.54,419.15 237.13,419.15 227.9,419.15 213.08,419.15 							
								"/>
							<path class="st7" d="M253.75,325.75h-7.65c-8.07,0-15.41,4.69-18.79,12.03l-42.1,91.32c-4.37,9.46,2.54,20.25,12.96,20.25
								h39.97"/>
							<line class="st7" x1="237.13" y1="399.02" x2="227.9" y2="419.02"/>
							<polyline class="st7" points="237.13,382.93 237.13,399.02 237.13,419.02 							"/>
							<path class="st7" d="M238.14,449.35h6.4h5.93c3.72,0,7.33-1.27,10.24-3.59l6.32-5.05l4.45-3.56l4.43,6.1"/>
							<path class="st7" d="M270.33,449.35c-4.59,0-6.67-5.67-3.3-8.64c0.06-0.07,0.13-0.13,0.2-0.18"/>
							<path class="st7" d="M269.69,417.52c0.26,0.13,0.5,0.33,0.69,0.59l15.9,21.84c2.85,3.91,0.06,9.4-4.78,9.4h-1.83"/>
							<path class="st7" d="M244.54,429.72l6.77-3.53l16.62-8.66c0.44-0.23,0.93-0.27,1.38-0.15"/>
							<line class="st7" x1="270.33" y1="449.35" x2="279.67" y2="449.35"/>
							<path class="st7" d="M313.21,449.35h-7.28h-5.79c-4.48,0-8.68-2.19-11.24-5.87l-18.45-25.35c-0.2-0.28-0.47-0.49-0.76-0.61
								c-0.12-0.07-0.25-0.11-0.38-0.14c-0.44-0.1-0.91-0.05-1.33,0.17l-16.12,8.41c-0.18,0.09-0.36,0.17-0.55,0.23
								c-1.8,0.62-3.83-0.16-4.74-1.9c-0.3-0.58-0.44-1.2-0.44-1.81c0-1.4,0.74-2.75,2.05-3.46l12.53-6.77l6.75-3.65l4.07-2.2
								c2.86-1.54,6.37-1.15,8.81,0.98l2.54,2.21l5.76,5.02l17.29,15.06"/>
							<path class="st7" d="M274.63,300.71c4.97,0,9.01-4.03,9.01-9.01"/>
						</g>
					</g>
				</g>
			</g>
			<path class="st7" d="M428.22,184.64h105.86c15.17,0,24.73,16.32,17.32,29.56l-30.7,54.79"/>
			<path class="st7" d="M194.03,186.92c4.65-1.49,9.56-2.27,14.59-2.27h169.12"/>
			<line class="st7" x1="142.94" y1="251.69" x2="151.13" y2="237.08"/>
			<path class="st7" d="M466.82,365.13l-33.6,59.95c-8.49,15.14-24.49,24.52-41.84,24.52H65.92c-15.17,0-24.73-16.32-17.32-29.56
				l29.67-52.95"/>
			<line class="st7" x1="508.44" y1="290.86" x2="490.53" y2="322.82"/>
		</g>
		<path class="st7" d="M381.75,335.47l80.71,28.22c18.96,6.63,37.36-11.24,31.28-30.38l-19-60.31"/>
	</g>
	<polygon class="st14" points="328.68,218.68 328.68,206.33 316.33,206.33 316.33,218.68 303.98,218.68 303.98,231.03 
		316.33,231.03 316.33,243.38 328.68,243.38 328.68,231.03 341.03,231.03 341.03,218.68 	"/>
	<polygon class="st14" points="281.48,179.18 281.48,160.66 262.95,160.66 262.95,179.18 244.43,179.18 244.43,197.71 
		262.95,197.71 262.95,216.23 281.48,216.23 281.48,197.71 300,197.71 300,179.18 	"/>
</g>
</svg>
