<?xml version="1.0" encoding="utf-8"?>
<!-- Generator: Adobe Illustrator 26.0.1, SVG Export Plug-In . SVG Version: 6.00 Build 0)  -->
<svg version="1.1" id="Layer_1" xmlns="http://www.w3.org/2000/svg" xmlns:xlink="http://www.w3.org/1999/xlink" x="0px" y="0px"
	 viewBox="0 0 600 600" style="enable-background:new 0 0 600 600;" xml:space="preserve">
<style type="text/css">
	.st0{fill:#8696A8;}
	.st1{fill:#A0AEBC;}
	.st2{fill:#F6FBFC;}
	.st3{fill:none;stroke:#50566A;stroke-linecap:round;stroke-linejoin:round;stroke-miterlimit:10;}
	.st4{fill:#679E9E;}
	.st5{fill:#FFFFFF;stroke:#50566A;stroke-linecap:round;stroke-linejoin:round;stroke-miterlimit:10;}
	.st6{fill:none;stroke:#50566A;stroke-miterlimit:10;}
	.st7{clip-path:url(#SVGID_00000174602198156004638020000001858429853999974812_);}
	.st8{fill:#50566A;}
	.st9{fill:#D3E4F4;}
	.st10{fill:#F0F7F7;}
	.st11{fill:#FAD0CA;}
	.st12{fill:#727A91;}
	.st13{fill:#FFFFFF;}
	.st14{fill:#DDEBEA;stroke:#50566A;stroke-linecap:round;stroke-linejoin:round;stroke-miterlimit:10;}
	.st15{fill:#E1EEF9;stroke:#50566A;stroke-linecap:round;stroke-linejoin:round;stroke-miterlimit:10;}
	.st16{fill:#ABCEB6;stroke:#50566A;stroke-linecap:round;stroke-linejoin:round;stroke-miterlimit:10;}
	.st17{fill:#77AA8A;stroke:#50566A;stroke-linecap:round;stroke-linejoin:round;stroke-miterlimit:10;}
	.st18{fill:#EE9E9A;stroke:#50566A;stroke-linecap:round;stroke-linejoin:round;stroke-miterlimit:10;}
	.st19{fill:#F1D28E;stroke:#50566A;stroke-linecap:round;stroke-linejoin:round;stroke-miterlimit:10;}
	.st20{fill:#ADB9C4;stroke:#50566A;stroke-linecap:round;stroke-linejoin:round;stroke-miterlimit:10;}
	.st21{fill:none;stroke:#FFFFFF;stroke-linecap:round;stroke-linejoin:round;stroke-miterlimit:10;}
	.st22{fill:none;stroke:#EA986A;stroke-linecap:round;stroke-linejoin:round;stroke-miterlimit:10;}
</style>
<g>
	<g>
		<g id="XMLID_00000101810179227490907200000001023707579459303064_">
			<g>
				<path class="st0" d="M536.57,385.18c6.69,0,10.91,7.21,7.64,13.05l-47.76,85.22c-1.27,2.26-3.66,3.67-6.26,3.67h-10.56
					c2.59,0,4.98-1.41,6.25-3.67l52.03-92.84c1.36-2.43-0.4-5.43-3.18-5.43H536.57z"/>
				<path class="st1" d="M534.73,385.18c2.78,0,4.54,3,3.18,5.43l-52.03,92.84c-1.27,2.26-3.66,3.67-6.25,3.67h-6.99h-77.95h-12.41
					h-36.23c-2.79,0-4.54-3-3.18-5.43l52.03-92.84c1.27-2.26,3.66-3.67,6.25-3.67H534.73z M479.14,479.12l48.16-85.94H401.64
					l-48.16,85.94H479.14z"/>
				<polygon class="st2" points="527.3,393.18 479.14,479.12 353.48,479.12 401.64,393.18 				"/>
				<path class="st0" d="M472.64,487.12v6.76c0,2.97-2.4,5.37-5.37,5.37h-84.72c0-6.7,5.44-12.13,12.14-12.13H472.64z"/>
				<path class="st1" d="M382.28,487.12h12.41c-6.7,0-12.14,5.43-12.14,12.13h-0.27H267.89v-5.53c0-3.65,2.95-6.6,6.6-6.6h71.56
					H382.28z"/>
			</g>
			<g>
				<path class="st3" d="M472.64,487.12h6.99c2.59,0,4.98-1.41,6.25-3.67l52.03-92.84c1.36-2.43-0.4-5.43-3.18-5.43H401.15
					c-2.59,0-4.98,1.41-6.25,3.67l-52.03,92.84c-1.36,2.43,0.39,5.43,3.18,5.43"/>
				<line class="st3" x1="382.28" y1="487.12" x2="394.69" y2="487.12"/>
				<polygon class="st3" points="353.48,479.12 401.64,393.18 527.3,393.18 479.14,479.12 				"/>
				<path class="st3" d="M479.63,487.12h10.56c2.6,0,4.99-1.41,6.26-3.67l47.76-85.22c3.27-5.84-0.95-13.05-7.64-13.05h-1.84"/>
				<path class="st3" d="M382.55,499.25h84.72c2.97,0,5.37-2.4,5.37-5.37v-6.76h-77.95C387.99,487.12,382.55,492.55,382.55,499.25z"
					/>
				<path class="st3" d="M382.28,487.12h-36.23h-71.56c-3.65,0-6.6,2.95-6.6,6.6v5.53h114.39"/>
			</g>
		</g>
	</g>
	<path class="st4" d="M111.73,425.25l95.72-170.8c6.87-12.26,19.83-19.86,33.89-19.86h263.6c12.29,0,20.03,13.22,14.03,23.94
		l-95.72,170.8c-6.87,12.26-19.83,19.86-33.89,19.86h-263.6C113.47,449.19,105.72,435.97,111.73,425.25z"/>
	<g>
		<path class="st5" d="M259.46,348.45H100.42c-2.33,0-4.21-1.89-4.21-4.21V105.17c0-2.33,1.89-4.21,4.21-4.21h159.04
			c2.33,0,4.21,1.89,4.21,4.21v239.07C263.67,346.56,261.78,348.45,259.46,348.45z"/>
		<line class="st6" x1="109.65" y1="118.08" x2="249.38" y2="118.08"/>
		<line class="st6" x1="178.19" y1="150.35" x2="249.38" y2="150.35"/>
		<line class="st6" x1="178.19" y1="173.85" x2="249.38" y2="173.85"/>
		<line class="st6" x1="178.19" y1="197.34" x2="249.38" y2="197.34"/>
		<line class="st6" x1="178.19" y1="220.84" x2="249.38" y2="220.84"/>
		<line class="st6" x1="109.65" y1="244.34" x2="249.38" y2="244.34"/>
		<line class="st6" x1="109.65" y1="268.16" x2="249.38" y2="268.16"/>
		<line class="st6" x1="109.65" y1="293.72" x2="249.38" y2="293.72"/>
		<line class="st6" x1="109.65" y1="319.27" x2="249.38" y2="319.27"/>
	</g>
	<path class="st5" d="M469.7,211.99h-84.2c-7.47,0-13.52-6.05-13.52-13.52v-84.2c0-7.47,6.05-13.52,13.52-13.52h84.2
		c7.47,0,13.52,6.05,13.52,13.52v84.2C483.22,205.93,477.17,211.99,469.7,211.99z"/>
	<line class="st5" x1="185.36" y1="302.7" x2="194.3" y2="303.27"/>
	<g>
		<defs>
			<path id="SVGID_1_" d="M521.04,189.34H109.65V431.7l0.07-0.03c-0.81,8.94,6.13,17.52,16.03,17.52h263.6
				c14.06,0,27.02-7.59,33.89-19.86l95.72-170.8c1.89-3.38,2.42-7,1.87-10.39l0.21-0.09V189.34z"/>
		</defs>
		<clipPath id="SVGID_00000078007322140460495080000001984812431102249147_">
			<use xlink:href="#SVGID_1_"  style="overflow:visible;"/>
		</clipPath>
		<g style="clip-path:url(#SVGID_00000078007322140460495080000001984812431102249147_);">
			<g id="XMLID_00000138533294033422389960000015169354486985949600_">
				<g>
					<polygon class="st8" points="377.64,344.69 386.63,361.51 384.02,388.23 					"/>
					<path class="st9" d="M345.67,278.67c1.95,0,3.37,1.86,2.86,3.74l-27.59,100.58c-0.25,0.92-0.37,1.87-0.37,2.82v86.47h-5.74
						v-85.26c0-1.04-0.05-2.09-0.16-3.12l-10.52-100.99c-0.23-2.27,1.55-4.24,3.83-4.24h1.27c2.87,6.93,9.7,11.81,17.67,11.81
						c8.03,0,14.9-4.8,17.73-11.81H345.67z"/>
					<path class="st10" d="M342.41,278.67h-4.96v-2.7h12.11c2.27,0,4.38,1.01,5.8,2.7h9.08c11.11,0,21.28,6.24,26.3,16.16
						l44.08,89.7c1.56,3.18,2.37,6.68,2.37,10.22v77.53h-31.82v-71.74c0-2.6-0.64-5.16-1.86-7.46l-16.88-31.57l-8.99-16.82
						l6.38,43.54l-0.8,8.23v75.82h-62.65v-86.47c0-0.95,0.12-1.9,0.37-2.82l27.59-100.58c0.51-1.88-0.91-3.74-2.86-3.74h-1.02
						H342.41z"/>
					<path class="st8" d="M340.89,236.14c0,0.4-0.28,0.74-0.66,0.83c-0.53-0.03-0.96-0.43-1.03-0.95c0.06-0.42,0.41-0.74,0.84-0.74
						C340.51,235.28,340.89,235.67,340.89,236.14z"/>
					<path class="st8" d="M340.23,236.97c-0.06,0.01-0.12,0.02-0.19,0.02c-0.47,0-0.85-0.39-0.85-0.85c0-0.04,0-0.08,0.01-0.12
						C339.27,236.54,339.7,236.94,340.23,236.97z"/>
					<path class="st11" d="M340.23,236.97c0.38-0.09,0.66-0.43,0.66-0.83c0-0.47-0.38-0.86-0.85-0.86c-0.43,0-0.78,0.32-0.84,0.74
						c-0.01,0.04-0.01,0.08-0.01,0.12c0,0.46,0.38,0.85,0.85,0.85C340.11,236.99,340.17,236.98,340.23,236.97z M337.45,278.67h4.96
						h2.24c-2.83,7.01-9.7,11.81-17.73,11.81c-7.97,0-14.8-4.88-17.67-11.81h2.42h3.67v-2.7v-2.34v-0.98l9.11-7.1h-8.29
						c-0.28,0-0.55-0.01-0.82-0.02c-11.43-0.43-20.56-9.84-20.56-21.37v-20.7h24.18c6.07,0,10.99-4.92,10.99-10.99v5.55
						c0,3.22,1.51,6.09,3.85,7.93l-0.01,0.01v8.43c0,0.52,0.74,0.63,0.89,0.12l0.29-1.03l0.35-1.22c0.56-1.44,1.59-2.64,2.89-3.42
						c0.58-0.34,1.21-0.56,1.86-0.66c1.13-0.15,2.31,0.06,3.31,0.66c2.02,1.2,3.37,3.41,3.37,5.94c0,1.91-0.78,3.65-2.05,4.9
						c-1.96,1.95-4.91,2.16-7.08,0.62l-0.17,0.23v33.1v2.34V278.67z M325.04,247.8v-0.48h-19.98v0.48c0,5.52,4.47,9.99,9.99,9.99
						C320.56,257.79,325.04,253.32,325.04,247.8z"/>
					<path class="st12" d="M338.21,228.84c-1.3,0.78-2.33,1.98-2.89,3.42c-0.15,0.39-0.27,0.8-0.35,1.22l-0.29,1.03
						c-0.15,0.51-0.89,0.4-0.89-0.12v-8.43l0.01-0.01c1.72,1.37,3.9,2.18,6.26,2.18l0.01,0.05
						C339.42,228.28,338.79,228.5,338.21,228.84z"/>
					<path class="st13" d="M325.04,247.32v0.48c0,5.52-4.48,9.99-9.99,9.99c-5.52,0-9.99-4.47-9.99-9.99v-0.48H325.04z"/>
					<path class="st8" d="M324.45,265.55l-9.11,7.1v-7.1v-0.02c0.27,0.01,0.54,0.02,0.82,0.02H324.45z"/>
					<path class="st12" d="M340.06,228.13c-2.36,0-4.54-0.81-6.26-2.18c-2.34-1.84-3.85-4.71-3.85-7.93v-5.55
						c0,6.07-4.92,10.99-10.99,10.99h-24.18v20.7c0,11.53,9.13,20.94,20.56,21.37v0.02v7.1v0.98h-25.08v-55.34
						c0-13.71,11.11-24.83,24.82-24.83h17.26c4.04,0,7.31,3.28,7.31,7.31c5.4,0,10.3,2.19,13.84,5.74
						c3.55,3.54,5.74,8.44,5.74,13.85v53.27h-21.78v-33.1l0.17-0.23c2.17,1.54,5.12,1.33,7.08-0.62c1.27-1.25,2.05-2.99,2.05-4.9
						c0-2.53-1.35-4.74-3.37-5.94c-1-0.6-2.18-0.81-3.31-0.66L340.06,228.13z"/>
					<polygon class="st10" points="315.34,275.97 315.34,278.67 311.67,278.67 309.25,278.67 309.25,275.97 					"/>
					<path class="st10" d="M240.37,347.36l32.66-55.69c4.72-8.05,13.36-13,22.7-13h3.4l0.05,0.03c1.25-1.7,3.25-2.73,5.4-2.73h4.67
						v2.7h-1.27c-2.28,0-4.06,1.97-3.83,4.24l10.52,100.99c0.11,1.03,0.16,2.08,0.16,3.12v85.26H281.1v-79.43
						c0-4.22-0.77-8.4-2.28-12.34l-3.63-9.45c-1.7-4.41-2.6-9.04-2.73-13.68l-20.2,27.44c-7.3,9.91-22.44,8.76-28.16-2.13
						l-38.95-74.36h4.99h26.14h3.84L240.37,347.36z"/>
					<path class="st11" d="M189,284.59l0.02-0.4l0.33-4.01c0.07-0.94-0.35-1.85-1.13-2.39c-1-0.7-6.24-4.51-10.31-7.52
						c-1.84-1.36-2.15-3.99-0.69-5.74c0.78-0.94,1.92-1.43,3.06-1.43c0.8,0,1.6,0.24,2.3,0.74l13.69,9.73
						c0.08,0.02,0.15,0.04,0.23,0.06c5.58,1.58,9.54,6.52,10.02,12.29l0.38,4.52l9.38,17.89h-26.14l-3.02-5.52l-29.05-1.69
						c-1.9-0.11-3.67-0.96-4.94-2.38l-19.48-21.77c-1.85-2.06-1.12-5.33,1.42-6.43c0.52-0.22,1.06-0.32,1.59-0.32
						c1.13,0,2.24,0.47,3.03,1.34l10.15,11.33l-6.5-14.43c-0.3-0.65-0.43-1.32-0.43-1.97c0-2.51,2.01-4.76,4.76-4.77
						c1.89-0.01,3.61,1.1,4.38,2.82l7.26,16.29l-1.97-12.25c-0.46-2.76,1.67-5.27,4.47-5.27c1.1,0,2.12,0.4,2.91,1.06
						c0.79,0.67,1.36,1.6,1.55,2.69l2.92,16.64l0.33-0.06L189,284.59z"/>
				</g>
				<g>
					<path class="st3" d="M315.34,272.65l9.11-7.1h-8.29c-0.28,0-0.55-0.01-0.82-0.02c-11.43-0.43-20.56-9.84-20.56-21.37v-20.7"/>
					<polyline class="st3" points="337.45,240.53 337.45,273.63 337.45,275.97 337.45,278.67 337.45,280.72 					"/>
					<polyline class="st3" points="315.34,265.55 315.34,272.65 315.34,273.63 315.34,275.97 315.34,278.67 315.34,280.72 					"/>
					<path class="st3" d="M315.34,273.63h-25.08v-55.34c0-13.71,11.11-24.83,24.82-24.83h17.26c4.04,0,7.31,3.28,7.31,7.31
						c5.4,0,10.3,2.19,13.84,5.74c3.55,3.54,5.74,8.44,5.74,13.85v53.27h-21.78"/>
					<path class="st3" d="M329.95,212.47c0,6.07-4.92,10.99-10.99,10.99h-24.18"/>
					<path class="st3" d="M340.06,228.13c-2.36,0-4.54-0.81-6.26-2.18c-2.34-1.84-3.85-4.71-3.85-7.93v-5.55"/>
					<path class="st3" d="M334.96,233.55c0-0.02,0.01-0.05,0.01-0.07c0.08-0.42,0.2-0.83,0.35-1.22c0.56-1.44,1.59-2.64,2.89-3.42
						c0.58-0.34,1.21-0.56,1.86-0.66c1.13-0.15,2.31,0.06,3.31,0.66c2.02,1.2,3.37,3.41,3.37,5.94c0,1.91-0.78,3.65-2.05,4.9
						c-1.96,1.95-4.91,2.16-7.08,0.62c-0.26-0.18-0.51-0.39-0.74-0.62"/>
					<path class="st3" d="M333.79,225.96v8.43c0,0.52,0.74,0.63,0.89,0.12l0.29-1.03l0.35-1.22"/>
					<path class="st3" d="M315.34,275.97h-6.09h-4.67c-2.15,0-4.15,1.03-5.4,2.73c-0.18,0.24-0.34,0.49-0.48,0.75l-12.11,22
						l8.15,13.22l-5.52,21.3l20.49,48.4"/>
					<path class="st3" d="M314.83,472.28v-85.26c0-1.04-0.05-2.09-0.16-3.12l-10.52-100.99c-0.23-2.27,1.55-4.24,3.83-4.24h1.27"/>
					<path class="st3" d="M283.08,314.67v1.11c0,4.61-0.92,9.16-2.71,13.4l-4.67,11.05c-2.3,5.47-3.39,11.32-3.24,17.15
						c0.13,4.64,1.03,9.27,2.73,13.68l3.63,9.45c1.51,3.94,2.28,8.12,2.28,12.34v79.43h33.73h5.74h62.65h22.15h31.82v-77.53
						c0-3.54-0.81-7.04-2.37-10.22l-44.08-89.7c-5.02-9.92-15.19-16.16-26.3-16.16h-9.08h-0.02"/>
					<path class="st3" d="M337.45,275.97h12.11c2.27,0,4.38,1.01,5.8,2.7c0.35,0.41,0.65,0.86,0.91,1.35l10.54,20.08l-14.83,14.57
						l7.15,19.88l-33.98,49.82"/>
					<path class="st3" d="M344.65,278.67h1.02c1.95,0,3.37,1.86,2.86,3.74l-27.59,100.58c-0.25,0.92-0.37,1.87-0.37,2.82v86.47"/>
					<path class="st3" d="M299.13,278.67h-3.4c-9.34,0-17.98,4.95-22.7,13l-32.66,55.69v0.01"/>
					<path class="st3" d="M405.37,472.28v-71.74c0-2.6-0.64-5.16-1.86-7.46l-16.88-31.57l-8.99-16.82l6.38,43.54"/>
					<polyline class="st3" points="383.22,472.28 383.22,396.46 384.02,388.23 386.63,361.51 					"/>
					<path class="st3" d="M337.45,278.67h4.96h2.24c-2.83,7.01-9.7,11.81-17.73,11.81c-7.97,0-14.8-4.88-17.67-11.81h2.42h3.67"/>
					<path class="st3" d="M272.47,357.37l-0.01,0.01l-20.2,27.44c-7.3,9.91-22.44,8.76-28.16-2.13l-38.95-74.36h4.99h26.14h3.84
						l20.25,39.03l4.96,9.55"/>
					<path class="st3" d="M189.02,284.19l0.33-4.01c0.07-0.94-0.35-1.85-1.13-2.39c-1-0.7-6.24-4.51-10.31-7.52
						c-1.84-1.36-2.15-3.99-0.69-5.74c0.78-0.94,1.92-1.43,3.06-1.43c0.8,0,1.6,0.24,2.3,0.74l13.69,9.73
						c0.08,0.02,0.15,0.04,0.23,0.06c5.58,1.58,9.54,6.52,10.02,12.29l0.38,4.52l9.38,17.89"/>
					<path class="st3" d="M200.6,288.16l-1.22-0.91c-2.01-1.5-4.42-2.37-6.92-2.49l-3.46-0.17l-19.48-0.95"/>
					<path class="st3" d="M164.14,293.74c-1.78-0.64-3.08-2.19-3.4-4.06l-1.43-8.85l-1.97-12.25c-0.46-2.76,1.67-5.27,4.47-5.27
						c1.1,0,2.12,0.4,2.91,1.06c0.79,0.67,1.36,1.6,1.55,2.69l2.92,16.64l0.38,2.19"/>
					<path class="st3" d="M149.85,282.9l4.4,9.77c0.94,2.06,2.6,3.72,4.67,4.65"/>
					<path class="st3" d="M159.43,281.09l-0.12-0.26l-7.26-16.29c-0.77-1.72-2.49-2.83-4.38-2.82c-2.75,0.01-4.76,2.26-4.76,4.77
						c0,0.65,0.13,1.32,0.43,1.97l6.5,14.43"/>
					<path class="st3" d="M190.14,308.33l-3.02-5.52l-29.05-1.69c-1.9-0.11-3.67-0.96-4.94-2.38l-19.48-21.77
						c-1.85-2.06-1.12-5.33,1.42-6.43c0.52-0.22,1.06-0.32,1.59-0.32c1.13,0,2.24,0.47,3.03,1.34l10.15,11.33l0.01,0.01"/>
					<path class="st3" d="M315.05,257.79c-5.52,0-9.99-4.47-9.99-9.99v-0.48h19.98v0.48C325.04,253.32,320.56,257.79,315.05,257.79z
						"/>
					<path class="st3" d="M342.3,233.44c0-0.86-0.69-1.56-1.55-1.56c-0.87,0-1.56,0.7-1.56,1.56v2.43c0,0.05,0,0.1,0.01,0.15
						c0.07,0.52,0.5,0.92,1.03,0.95c0.02,0,0.03,0,0.05,0"/>
					<path class="st3" d="M340.23,236.97c-0.06,0.01-0.12,0.02-0.19,0.02c-0.47,0-0.85-0.39-0.85-0.85c0-0.04,0-0.08,0.01-0.12
						c0.06-0.42,0.41-0.74,0.84-0.74c0.47,0,0.85,0.39,0.85,0.86C340.89,236.54,340.61,236.88,340.23,236.97z"/>
				</g>
			</g>
		</g>
	</g>
	<line class="st3" x1="263.67" y1="234.59" x2="290.26" y2="234.59"/>
	<line class="st3" x1="145.46" y1="365.06" x2="154.77" y2="348.45"/>
	<path class="st3" d="M359.24,234.59h145.69c12.29,0,20.03,13.22,14.03,23.94l-95.72,170.8c-6.87,12.26-19.83,19.86-33.89,19.86
		h-263.6c-12.29,0-20.03-13.22-14.03-23.94l34.5-61.57"/>
	<polygon class="st14" points="456.06,276.99 456.06,258.46 437.54,258.46 437.54,276.99 419.01,276.99 419.01,295.51 
		437.54,295.51 437.54,314.03 456.06,314.03 456.06,295.51 474.58,295.51 474.58,276.99 	"/>
	<path class="st15" d="M132.35,398.12H65.4c-5.94,0-10.75-4.81-10.75-10.75v-66.95c0-5.94,4.81-10.75,10.75-10.75h66.95
		c5.94,0,10.75,4.81,10.75,10.75v66.95C143.1,393.3,138.29,398.12,132.35,398.12z"/>
	<circle class="st16" cx="98.88" cy="353.89" r="26.46"/>
	<g>
		<path class="st17" d="M90.55,367.77l-24.86-24.88l7.59-7.59l21.03,21.05l37.09-37.09l7.59,7.59l-40.92,40.92
			C96,369.85,92.63,369.85,90.55,367.77z"/>
	</g>
	<g>
		<path class="st15" d="M151.51,233.62H74.1c-6.86,0-12.43-5.56-12.43-12.43v-77.41c0-6.86,5.56-12.43,12.43-12.43h77.41
			c6.86,0,12.43,5.56,12.43,12.43v77.41C163.94,228.06,158.37,233.62,151.51,233.62z"/>
		<g>
			<rect x="75.72" y="151.83" class="st5" width="75.73" height="63.48"/>
			<rect x="82.85" y="171.85" class="st18" width="8.36" height="43.47"/>
			<rect x="100" y="193.58" class="st18" width="8.36" height="21.73"/>
			<rect x="117.16" y="160.17" class="st18" width="8.36" height="55.15"/>
			<rect x="134.31" y="179.05" class="st18" width="8.36" height="36.27"/>
			<g>
				<line class="st5" x1="82.85" y1="220.84" x2="91.21" y2="220.84"/>
				<line class="st5" x1="100" y1="220.84" x2="108.37" y2="220.84"/>
				<line class="st5" x1="117.16" y1="220.84" x2="125.52" y2="220.84"/>
				<line class="st5" x1="134.31" y1="220.84" x2="142.68" y2="220.84"/>
			</g>
		</g>
		<line class="st5" x1="75.72" y1="141.27" x2="151.45" y2="141.27"/>
	</g>
	<g>
		<g>
			<path class="st19" d="M449.26,153.89c0-12.42-10.45-22.4-23.04-21.62c-11.24,0.7-20.18,10.18-20.27,21.43
				c-0.05,5.77,2.16,11.02,5.79,14.92c3.73,4.01,6.23,9.01,6.84,14.45l0.13,1.16h17.8l0.12-1.1c0.59-5.29,2.79-10.34,6.5-14.15
				C446.92,165.09,449.26,159.76,449.26,153.89z"/>
			<path class="st20" d="M436.5,184.24v9.12c0,1.97-0.64,3.8-1.74,5.28c-0.58,0.78-1.27,1.47-2.06,2.02c-1.44,1.01-3.2,1.6-5.1,1.6
				c-1.9,0-3.65-0.59-5.1-1.61c-0.43-0.29-0.83-0.63-1.19-1c-0.31-0.31-0.61-0.65-0.87-1.01c-1.1-1.48-1.74-3.31-1.74-5.28v-9.12
				H436.5z"/>
			<path class="st18" d="M418.7,187.84c0-0.03,17.8,0,17.8,0"/>
			<path class="st21" d="M420.16,190.49c0-0.03,14.87,0,14.87,0"/>
			<path class="st21" d="M420.16,193.14c0-0.03,14.87,0,14.87,0"/>
			<path class="st21" d="M420.66,195.78c0-0.03,13.89,0,13.89,0"/>
			<polyline class="st3" points="419.81,150.01 423.36,184.24 431.84,184.24 435.4,150.01 			"/>
			<polyline class="st22" points="419.81,150.01 422.4,153.08 425,150.01 427.59,153.08 430.19,150.01 432.79,153.08 435.4,150.01 
							"/>
			<path class="st21" d="M409.6,154.1c0-9.94,8.06-18,18-18"/>
			<path class="st8" d="M432.7,200.66c-1.44,1.01-3.2,1.6-5.1,1.6c-1.9,0-3.65-0.59-5.1-1.61
				C425.51,200.65,429.69,200.66,432.7,200.66z"/>
			<path class="st21" d="M422.2,198.43c0-0.03,10.8,0,10.8,0"/>
		</g>
		<g>
			<line class="st5" x1="381.98" y1="154.1" x2="398.1" y2="154.1"/>
			<line class="st5" x1="457.1" y1="154.1" x2="473.23" y2="154.1"/>
		</g>
		<g>
			<line class="st5" x1="459.86" y1="186.36" x2="448.46" y2="174.96"/>
			<line class="st5" x1="406.74" y1="133.24" x2="395.34" y2="121.84"/>
		</g>
		<g>
			<line class="st5" x1="395.34" y1="186.36" x2="406.74" y2="174.96"/>
			<line class="st5" x1="448.46" y1="133.24" x2="459.86" y2="121.84"/>
		</g>
		<g>
			<line class="st5" x1="427.6" y1="124.59" x2="427.6" y2="108.47"/>
		</g>
	</g>
	<polygon class="st14" points="482.3,338.13 482.3,325.78 469.95,325.78 469.95,338.13 457.6,338.13 457.6,350.47 469.95,350.47 
		469.95,362.82 482.3,362.82 482.3,350.47 494.65,350.47 494.65,338.13 	"/>
</g>
</svg>
